# Blender 4.0.2
# www.blender.org
mtllib Hostage.mtl
o Hostage
v 0.416670 -8.777780 -3.027779
v 6.138890 0.888890 -0.805560
v 6.083330 -8.500000 -0.805559
v 0.000000 1.055560 -1.111110
v 0.000000 -8.805560 -3.027779
v -6.194450 0.888890 -0.805560
v -5.888890 -8.500000 -0.805559
v 9.083330 -1.694440 5.694450
v 8.388890 -0.194440 5.694450
v -8.416670 -0.194440 5.694450
v -8.861110 -1.694440 5.694450
v 0.833330 -10.666669 7.888891
v 8.388890 -0.194440 5.694450
v -0.055560 -1.166669 10.611110
v 9.083330 -1.694440 5.694450
v -8.416670 -0.194440 5.694450
v -0.388890 -10.666669 7.888891
v -8.861110 -1.694440 5.694450
v -0.388890 -10.666669 7.888891
v 0.416670 -8.777780 -3.027779
v 0.833330 -10.666669 7.888891
v 0.000000 -8.805560 -3.027779
v -20.833330 16.694441 6.833329
v -10.055560 13.722221 6.611109
v -8.638890 20.861111 5.444448
v -21.416670 14.083330 3.444439
v -8.638890 20.861111 -0.750002
v -21.416670 19.555559 3.583328
v -8.638890 20.861111 5.444448
v -20.833330 16.694441 6.833329
v -8.638890 20.861111 5.444448
v -21.416670 19.555559 3.583328
v -10.055560 13.722220 -1.694441
v -22.027781 16.694441 1.166669
v -8.638890 20.861111 -0.750002
v -8.638890 20.861111 -0.750002
v -22.027781 16.694441 1.166669
v -21.416670 14.083330 3.444439
v -10.055560 13.722220 -1.694441
v -22.027781 16.694441 1.166669
v -23.916670 14.305560 3.249999
v -22.611111 16.722219 0.749999
v -21.416670 14.083330 3.444439
v -23.972219 19.027781 3.555559
v -21.416670 19.555559 3.583328
v -20.833330 16.694441 6.833329
v -24.694441 16.722219 6.222219
v -36.194439 15.666670 3.333329
v -23.916670 14.305560 3.249999
v -36.166672 15.472220 5.499999
v -22.611111 16.722219 0.749999
v -24.694441 16.722219 6.222219
v -36.166672 17.194441 5.555559
v -36.166672 15.472220 5.499999
v -36.194439 17.250000 3.388889
v -36.194439 15.666670 3.333329
v -41.722221 14.555560 2.694439
v -42.888889 14.583331 6.361109
v -39.444439 17.027781 3.249999
v -39.472221 17.027781 5.333329
v 9.944450 13.444441 6.611109
v 20.722219 16.416670 6.833329
v 8.555560 20.583330 5.444448
v 20.722219 16.416670 6.833329
v 9.944450 13.444441 6.611109
v 21.305559 13.805560 3.444439
v 21.305559 19.277781 3.583328
v 8.555560 20.583330 -0.750002
v 8.555560 20.583330 5.444448
v 8.555560 20.583330 5.444448
v 20.722219 16.416670 6.833329
v 21.305559 19.277781 3.583328
v 21.944441 16.416670 1.166669
v 9.944450 13.444440 -1.694441
v 8.555560 20.583330 -0.750002
v 8.555560 20.583330 -0.750002
v 21.944441 16.416670 1.166669
v 21.944441 16.416670 1.166669
v 9.944450 13.444440 -1.694441
v 0.000000 1.055560 -1.111110
v 7.583330 11.000000 -1.500001
v 6.138890 0.888890 -0.805560
v -0.111110 12.305560 -1.833331
v -9.000000 10.777780 -1.805561
v -6.194450 0.888890 -0.805560
v 6.944450 22.305559 0.583328
v 8.555560 20.583330 -0.750002
v -6.694450 22.500000 0.861108
v -3.555560 24.694441 3.305558
v -0.083330 25.277781 0.638888
v -6.694450 22.500000 0.861108
v -8.638890 20.861111 -0.750002
v 6.944450 22.305559 0.583328
v -0.111110 12.305560 -1.833331
v -0.083330 25.277781 0.638888
v 6.944450 22.305559 0.583328
v 3.416670 24.694441 3.305558
v -6.694450 22.500000 0.861108
v 4.861110 11.416671 9.972219
v -0.055560 -1.166669 10.611110
v 8.388890 -0.194440 5.694450
v -5.027780 11.416671 9.999999
v -8.416670 -0.194440 5.694450
v -9.500000 10.888890 5.888889
v 9.722220 10.972221 6.333329
v 4.861110 11.416671 9.972219
v 4.861110 11.416671 9.972219
v -0.194440 22.250000 7.611108
v -5.027780 11.416671 9.999999
v 8.555560 20.583330 -0.750002
v 6.055560 21.138889 6.555559
v -6.694450 22.500000 0.861108
v -7.361110 20.722219 6.277779
v -8.638890 20.861111 -0.750002
v -7.361110 20.722219 6.277779
v -3.555560 24.694441 3.305558
v -3.555560 24.694441 3.305558
v -5.027780 11.416671 9.999999
v -10.055560 13.722221 6.611109
v -9.500000 10.888890 5.888889
v 9.722220 10.972221 6.333329
v 6.055560 21.138889 6.555559
v 3.416670 24.694441 3.305558
v 3.416670 24.694441 3.305558
v 6.944450 22.305559 0.583328
v 8.388890 -0.194440 5.694450
v 7.583330 11.000000 -1.500001
v 9.722220 10.972221 6.333329
v 6.138890 0.888890 -0.805560
v 9.944450 13.444440 -1.694441
v -8.416670 -0.194440 5.694450
v -9.000000 10.777780 -1.805561
v -6.194450 0.888890 -0.805560
v -9.500000 10.888890 5.888889
v -0.027780 32.583328 -0.000002
v 1.305560 36.194439 3.416667
v 4.055560 31.111111 5.611108
v 4.055560 31.111111 5.611108
v 3.361110 26.222219 5.527778
v -0.027780 32.583328 -0.000002
v -1.416670 36.194439 3.416667
v -4.166670 31.027781 5.611108
v -4.166670 31.027781 5.611108
v -3.166670 26.222219 5.527778
v 3.361110 34.416660 8.999997
v 4.055560 31.111111 5.611108
v 3.361110 34.416660 8.999997
v 3.722220 28.416670 9.249998
v 3.722220 28.416670 9.249998
v 1.444440 23.250000 10.888888
v -3.444440 34.416660 8.999997
v -3.444440 34.416660 8.999997
v -4.166670 31.027781 5.611108
v -3.750000 28.416670 9.222219
v 1.305560 36.194439 3.416667
v -1.416670 36.194439 3.416667
v -0.027780 35.388889 9.388887
v 3.361110 34.416660 8.999997
v -3.750000 28.416670 9.222219
v -1.388890 23.250000 10.888888
v -0.027780 32.583328 -0.000002
v 3.361110 26.222219 5.527778
v -0.083330 25.277781 0.638888
v -3.166670 26.222219 5.527778
v -3.444440 34.416660 8.999997
v 0.027780 28.194441 11.611108
v 3.722220 28.416670 9.249998
v 3.361110 34.416660 8.999997
v 1.444440 23.250000 10.888888
v -3.750000 28.416670 9.222219
v -3.444440 34.416660 8.999997
v -1.388890 23.250000 10.888888
v -0.027780 35.388889 9.388887
v 0.027780 28.194441 11.611108
v -0.027780 23.805559 8.249998
v 3.361110 26.222219 5.527778
v 1.444440 23.250000 10.888888
v -1.388890 23.250000 10.888888
v -3.166670 26.222219 5.527778
v 3.416670 24.694441 3.305558
v -3.555560 24.694441 3.305558
v -0.194440 22.250000 7.611108
v -0.027780 23.805559 8.249998
v 24.027781 14.444440 3.444439
v 21.944441 16.416670 1.166669
v 22.722219 16.861111 0.944439
v 21.305559 13.805560 3.444439
v 21.944441 16.416670 1.166669
v 24.083330 19.166670 3.749999
v 22.722219 16.861111 0.944439
v 21.305559 19.277781 3.583328
v 20.722219 16.416670 6.833329
v 24.805559 16.861111 6.416668
v 24.027781 14.444440 3.444439
v 36.083328 15.666670 2.194439
v 35.916660 15.305560 4.333329
v 20.722219 16.416670 6.833329
v 24.805559 16.861111 6.416668
v 35.916660 15.305560 4.333329
v 35.861111 17.027781 4.527779
v 36.055561 17.222219 2.361109
v 43.027779 14.388890 5.499999
v 41.722221 14.583330 1.722219
v 39.138889 17.305559 4.388888
v 39.361111 17.472219 1.888889
v 0.833330 -10.666669 7.888891
v 6.416670 -25.916670 7.583332
v 1.805560 -24.444441 2.555562
v 6.416670 -25.916670 7.583332
v 0.833330 -10.666669 7.888891
v 6.083330 -8.500000 -0.805559
v 8.972220 -24.444441 2.555562
v 6.416670 -25.916670 7.583332
v 0.416670 -8.777780 -3.027779
v 6.083330 -8.500000 -0.805559
v 5.250000 -20.000000 -1.472218
v 5.250000 -20.000000 -1.472218
v 0.416670 -8.777780 -3.027779
v 5.250000 -20.000000 -1.472218
v 1.944450 -30.472219 2.277782
v 5.805560 -30.472219 6.138892
v 8.694450 -30.472219 2.222222
v 5.805560 -30.472219 6.138892
v 5.694450 -30.472219 -2.249998
v 5.694450 -30.472219 -2.249998
v 5.777780 -49.333328 7.805564
v 1.944450 -49.333328 2.277784
v 5.777780 -49.333328 7.805564
v 8.583330 -49.333328 2.222224
v 5.722220 -49.333328 -4.111106
v 5.722220 -49.333328 -4.111106
v 8.222220 -52.333340 3.194444
v 3.250000 -52.333340 11.444444
v 2.111110 -52.333340 6.444444
v 6.527780 -52.333340 9.722224
v 6.611110 -52.305561 -3.861106
v 3.194440 -52.305561 -3.861106
v 2.611110 -49.694450 4.611114
v 7.722220 -50.027779 2.805564
v 3.500000 -49.666672 -3.388886
v 6.305560 -49.666672 -3.388886
v -5.888890 -8.500000 -0.805559
v 0.000000 -8.805560 -3.027779
v -4.750000 -20.277781 -1.444438
v -4.750000 -20.277781 -1.444438
v -8.222220 -24.722219 2.583332
v -5.888890 -8.500000 -0.805559
v -0.388890 -10.666669 7.888891
v -5.361110 -26.305559 7.611112
v -5.361110 -26.305559 7.611112
v -0.861110 -24.722219 2.583332
v -0.388890 -10.666669 7.888891
v -5.361110 -26.305559 7.611112
v 0.000000 -8.805560 -3.027779
v -4.750000 -20.277781 -1.444438
v -7.805560 -30.638889 2.222222
v -4.805560 -30.638889 -2.249998
v -0.805560 -30.666670 2.250002
v -4.805560 -30.638889 6.083333
v -4.805560 -30.638889 6.083333
v -4.805560 -30.638889 -2.249998
v -4.722220 -49.527779 -4.333326
v -7.666670 -49.527779 2.222224
v -4.888890 -49.527779 7.777784
v -0.805560 -49.527779 2.250004
v -4.888890 -49.527779 7.777784
v -4.722220 -49.527779 -4.333326
v -2.333330 -52.055561 11.444444
v -7.305560 -52.083340 3.194444
v -1.194440 -52.083340 6.444444
v -5.611110 -52.055561 9.722224
v -5.694450 -52.055561 -3.861106
v -2.250000 -52.055561 -3.861106
v -1.694440 -49.444450 4.611114
v -6.805560 -49.777779 2.805564
v -2.583330 -49.388889 -3.388886
v -5.388890 -49.388889 -3.388886
vn 0.3662 -0.0019 -0.9305
vn 0.3661 -0.0020 -0.9306
vn -0.0303 0.1896 -0.9814
vn -0.0303 0.1895 -0.9814
vn -0.3523 -0.0110 -0.9358
vn 0.8837 0.4072 -0.2309
vn 0.8837 0.4071 -0.2310
vn 0.8837 0.4072 -0.2310
vn -0.9445 -0.0300 -0.3272
vn -0.9445 -0.0301 -0.3272
vn 0.5085 -0.1917 0.8395
vn 0.5085 -0.1917 0.8394
vn -0.5129 -0.2203 0.8297
vn 0.0005 -0.2762 0.9611
vn 0.0012 -0.9855 -0.1695
vn 0.0620 0.1477 0.9871
vn -0.1954 -0.7602 0.6196
vn -0.1002 0.9950 -0.0002
vn -0.1709 0.7246 0.6676
vn -0.1924 0.1675 -0.9669
vn -0.3030 0.6498 -0.6971
vn -0.3266 -0.6633 -0.6733
vn -0.0301 -0.9995 -0.0002
vn 0.3250 -0.7567 -0.5672
vn 0.3692 0.7968 -0.4784
vn -0.1030 0.7659 0.6346
vn -0.1031 0.7659 0.6346
vn -0.1121 -0.9891 -0.0952
vn -0.1120 -0.9891 -0.0952
vn -0.1172 -0.7852 0.6081
vn -0.1172 -0.7851 0.6081
vn 0.0437 -0.7695 0.6371
vn -0.0590 -0.0321 0.9977
vn -0.0054 0.7570 0.6534
vn -0.1438 0.9894 0.0210
vn -0.0991 0.7441 -0.6606
vn -0.0992 0.7441 -0.6606
vn 0.1844 -0.9781 -0.0969
vn 0.1844 -0.9781 -0.0970
vn 0.1828 -0.9783 -0.0975
vn -0.0161 0.9998 -0.0088
vn -0.6073 0.7689 -0.1997
vn -0.6073 0.7690 -0.1997
vn 0.1365 -0.0315 0.9901
vn 0.0747 0.1589 -0.9845
vn 0.0747 0.1590 -0.9845
vn -0.0615 0.1480 0.9871
vn 0.1960 -0.7601 0.6196
vn 0.1004 0.9950 -0.0002
vn 0.1714 0.7246 0.6675
vn 0.1929 0.1677 -0.9668
vn 0.3035 0.6496 -0.6970
vn 0.3270 -0.6631 -0.6733
vn 0.0305 -0.9995 -0.0002
vn 0.0488 -0.0525 -0.9974
vn 0.0046 -0.0425 -0.9991
vn -0.6826 -0.0359 -0.7300
vn -0.3770 0.8746 -0.3049
vn 0.6545 -0.0268 -0.7556
vn -0.0425 0.2329 -0.9716
vn 0.2932 0.1607 -0.9424
vn 0.0733 0.1880 -0.9794
vn 0.3718 0.8791 -0.2983
vn -0.1135 0.1878 -0.9756
vn 0.0742 0.1875 -0.9795
vn -0.2527 0.1641 -0.9535
vn 0.5086 -0.1736 0.8433
vn 0.0012 0.0308 0.9995
vn -0.5135 -0.1653 0.8420
vn -0.6699 -0.0801 0.7381
vn 0.5884 -0.1216 0.7994
vn 0.0012 0.2136 0.9769
vn 0.2134 0.9770 -0.0002
vn 0.2134 0.9770 -0.0003
vn -0.2527 0.9277 0.2747
vn -0.5265 0.2354 0.8169
vn -0.2390 0.3082 0.9208
vn -0.2734 0.7291 0.6275
vn -0.6477 0.7438 0.1648
vn -0.6153 -0.3386 0.7118
vn -0.6154 -0.3386 0.7118
vn 0.5868 -0.1348 0.7985
vn 0.4376 0.2265 0.8702
vn 0.4375 0.2266 0.8702
vn 0.2386 0.7428 0.6256
vn 0.6675 0.7057 0.2375
vn 0.2122 0.3028 0.9291
vn 0.9599 -0.1035 -0.2607
vn 0.9598 -0.1035 -0.2607
vn 0.7174 -0.6686 -0.1956
vn -0.8994 -0.2599 -0.3514
vn -0.8994 -0.2598 -0.3514
vn -0.9778 -0.2095 0.0005
vn 0.8127 0.2051 -0.5454
vn 0.7872 -0.1035 -0.6080
vn -0.8148 0.2041 -0.5426
vn -0.0000 0.6863 -0.7273
vn -0.7757 -0.1514 -0.6126
vn 0.8952 0.3987 -0.1992
vn 0.9874 0.0667 0.1438
vn 0.9900 -0.1406 -0.0095
vn 0.9225 -0.3639 0.1287
vn -0.8974 0.3924 -0.2016
vn -0.9867 0.0566 0.1522
vn -0.0000 0.9906 0.1369
vn 0.2891 0.9370 0.1961
vn -0.9789 -0.2015 -0.0339
vn -0.9163 -0.3905 0.0893
vn 0.8294 -0.0366 -0.5574
vn -0.8264 -0.0786 -0.5575
vn -0.2888 0.9371 0.1960
vn 0.5358 0.0689 0.8415
vn -0.5290 0.0603 0.8465
vn -0.1900 0.2899 0.9380
vn -0.0000 -0.1426 0.9898
vn 0.1912 0.2938 0.9365
vn 0.3194 -0.8731 -0.3683
vn -0.0000 -0.9782 -0.2077
vn -0.3495 -0.8645 -0.3612
vn 0.4656 0.7642 -0.4463
vn -0.4717 0.7557 -0.4544
vn 0.6990 -0.2313 0.6767
vn 0.6989 -0.2313 0.6767
vn 0.7026 -0.2275 0.6743
vn -0.7517 -0.5197 0.4059
vn -0.7518 -0.5197 0.4059
vn -0.3245 -0.7567 -0.5675
vn -0.3736 0.7962 -0.4759
vn -0.3735 0.7962 -0.4759
vn 0.1033 0.7660 0.6345
vn 0.1033 0.7659 0.6346
vn 0.1033 0.7659 0.6345
vn 0.0837 -0.9838 -0.1585
vn 0.0838 -0.9838 -0.1585
vn 0.1192 -0.7853 0.6075
vn 0.1191 -0.7853 0.6075
vn 0.0081 -0.7769 0.6296
vn 0.1700 -0.0926 0.9811
vn 0.0979 0.7655 0.6359
vn 0.1716 0.9798 0.1024
vn 0.0490 0.7593 -0.6489
vn 0.0491 0.7593 -0.6489
vn -0.0728 -0.9825 -0.1714
vn -0.1008 0.9936 0.0508
vn 0.7475 0.6246 -0.2260
vn 0.7476 0.6245 -0.2261
vn -0.0100 0.1043 -0.9945
vn -0.1890 0.1182 0.9748
vn 0.2042 0.0493 0.9777
vn -0.7465 -0.2782 0.6044
vn 0.8861 0.0540 -0.4603
vn 0.8972 -0.0725 0.4357
vn 0.3648 0.0263 -0.9307
vn 0.7244 -0.0207 -0.6890
vn -0.9975 -0.0662 0.0259
vn -0.5171 -0.3203 -0.7937
vn -0.7437 -0.0547 0.6663
vn 0.8964 -0.0578 0.4395
vn 0.8964 -0.0579 0.4395
vn 0.7382 0.0041 -0.6746
vn 0.7382 0.0041 -0.6745
vn -0.7610 0.0012 -0.6487
vn -0.7062 0.0642 0.7051
vn -0.7063 0.0642 0.7050
vn 0.8037 0.0512 0.5928
vn 0.8036 0.0515 0.5929
vn 0.8313 0.0564 -0.5530
vn -0.7704 0.0615 -0.6346
vn 0.0015 -1.0000 0.0027
vn -0.0000 -1.0000 -0.0018
vn -0.0000 -1.0000 -0.0017
vn -0.9217 0.3250 0.2117
vn 0.1794 0.9249 0.3352
vn 0.1794 0.9249 0.3351
vn 0.9391 0.2459 0.2400
vn -0.0000 0.1778 -0.9841
vn -0.9851 0.1343 -0.1072
vn -0.0000 0.9982 0.0608
vn 0.9644 0.1516 -0.2166
vn -0.3503 0.0295 -0.9362
vn -0.7489 -0.0200 -0.6624
vn -0.2032 0.0452 0.9781
vn 0.7589 -0.2643 0.5952
vn -0.8904 0.0449 -0.4529
vn -0.8774 -0.0845 0.4723
vn 0.9981 -0.0552 0.0281
vn 0.4831 -0.3178 -0.8158
vn -0.7380 -0.0388 -0.6737
vn 0.7465 -0.0049 0.6654
vn -0.8785 -0.1094 0.4650
vn 0.7473 0.0537 -0.6623
vn -0.8318 0.0574 -0.5521
vn 0.6898 0.0610 0.7214
vn 0.6899 0.0611 0.7213
vn 0.6899 0.0610 0.7213
vn 0.6899 0.0610 0.7214
vn -0.7898 0.0581 0.6106
vn 0.7490 0.0764 -0.6582
vn -0.0013 -1.0000 0.0028
vn -0.0012 -1.0000 0.0027
vn 0.0002 -1.0000 -0.0018
vn 0.0003 -1.0000 -0.0018
vn 0.9217 0.3249 0.2117
vn -0.1788 0.9249 0.3355
vn -0.1792 0.9249 0.3352
vn -0.9391 0.2457 0.2401
vn 0.0002 0.1778 -0.9841
vn 0.9851 0.1343 -0.1072
vn 0.0002 0.9981 0.0608
vn 0.0002 0.9982 0.0608
vn -0.9644 0.1517 -0.2166
vt 0.054680 0.507820
vt 0.019540 0.625000
vt 0.019540 0.515620
vt 0.054690 0.507820
vt 0.058590 0.625000
vt 0.058590 0.507820
vt 0.101560 0.625000
vt 0.058600 0.507820
vt 0.097660 0.515620
vt 0.058600 0.625000
vt 0.000000 0.609380
vt 0.019530 0.625000
vt 0.003910 0.625000
vt 0.000000 0.609370
vt 0.019530 0.515630
vt 0.097660 0.515630
vt 0.117180 0.625000
vt 0.101570 0.625000
vt 0.117180 0.609370
vt 0.062500 0.382820
vt 0.113280 0.500000
vt 0.058600 0.500000
vt 0.117180 0.484370
vt 0.113290 0.500000
vt 0.000000 0.500000
vt 0.054690 0.382820
vt 0.058590 0.500000
vt 0.000000 0.484370
vt 0.054680 0.382820
vt 0.054690 0.380860
vt 0.062500 0.380860
vt 0.058600 0.380860
vt 0.035160 0.882820
vt 0.027350 0.976560
vt 0.054680 0.992180
vt 0.035150 0.882820
vt 0.003910 0.882820
vt 0.082030 1.000000
vt 0.078130 0.882820
vt 0.054690 0.992180
vt 0.078120 0.882820
vt 0.113280 0.992180
vt 0.105470 0.882820
vt 0.082040 1.000000
vt 0.105460 0.882820
vt 0.128900 0.882820
vt 0.113290 0.992180
vt 0.152340 0.976560
vt 0.128910 0.882820
vt 0.058590 0.992180
vt 0.035160 0.976570
vt 0.058590 0.988280
vt 0.031250 0.996090
vt 0.085930 0.976570
vt 0.058600 0.992180
vt 0.058600 0.988280
vt 0.085940 0.976570
vt 0.089840 0.996090
vt 0.125000 1.000000
vt 0.085940 0.976560
vt 0.125000 0.968750
vt 0.089850 0.996090
vt 0.035150 0.976560
vt 0.011720 0.882820
vt 0.035160 0.976560
vt 0.000000 1.000000
vt 0.000000 0.968750
vt 0.035150 0.976570
vt 0.113290 0.882820
vt 0.136710 0.882820
vt 0.113280 0.882820
vt 0.074220 0.882820
vt 0.085930 0.976560
vt 0.074210 0.882820
vt 0.160160 0.125000
vt 0.179680 0.109380
vt 0.160160 0.109380
vt 0.179680 0.125000
vt 0.160160 0.121090
vt 0.171880 0.109380
vt 0.175780 0.121090
vt 0.160160 0.113280
vt 0.171870 0.109380
vt 0.175790 0.121090
vt 0.160160 0.121100
vt 0.175790 0.121100
vt 0.171880 0.107420
vt 0.160160 0.107420
vt 0.179680 0.107420
vt 0.015630 0.976560
vt 0.027350 0.882820
vt 0.050780 0.992180
vt 0.152340 0.882820
vt 0.140630 0.976560
vt 0.078120 1.000000
vt 0.050790 0.992180
vt 0.093750 0.882820
vt 0.105460 0.992180
vt 0.078130 1.000000
vt 0.105470 0.992180
vt 0.140620 0.976560
vt 0.058590 0.257820
vt 0.011720 0.308590
vt 0.019540 0.257820
vt 0.058590 0.312500
vt 0.058600 0.257820
vt 0.113280 0.304680
vt 0.058600 0.312500
vt 0.097660 0.257820
vt 0.015620 0.363280
vt 0.007820 0.355460
vt 0.000000 0.320320
vt 0.097650 0.363290
vt 0.078130 0.375000
vt 0.058600 0.375000
vt 0.097660 0.363280
vt 0.117180 0.320320
vt 0.109380 0.355460
vt 0.113280 0.304690
vt 0.117180 0.320310
vt 0.113290 0.304690
vt 0.015630 0.363280
vt 0.058590 0.375000
vt 0.015630 0.363290
vt 0.039070 0.375000
vt 0.097650 0.363280
vt 0.011720 0.308600
vt 0.000000 0.320310
vt 0.089850 0.191400
vt 0.058600 0.132820
vt 0.109370 0.136710
vt 0.089840 0.191400
vt 0.027350 0.191400
vt 0.007820 0.136710
vt 0.058590 0.132820
vt 0.007820 0.136720
vt 0.027340 0.191400
vt 0.000000 0.187500
vt 0.117180 0.187500
vt 0.117180 0.199210
vt 0.089840 0.191410
vt 0.058600 0.242180
vt 0.027350 0.191410
vt 0.109370 0.232420
vt 0.097660 0.232420
vt 0.109370 0.234380
vt 0.101570 0.242180
vt 0.097660 0.234380
vt 0.019530 0.242180
vt 0.007820 0.234380
vt 0.015630 0.234380
vt 0.000000 0.199220
vt 0.015620 0.234370
vt 0.007820 0.234370
vt 0.000000 0.199210
vt 0.027340 0.191410
vt 0.015630 0.234370
vt 0.058590 0.242180
vt 0.039070 0.250000
vt 0.019540 0.242180
vt 0.039060 0.250000
vt 0.109380 0.136720
vt 0.097660 0.234370
vt 0.117180 0.199220
vt 0.109380 0.234370
vt 0.089850 0.191410
vt 0.097650 0.234380
vt 0.078130 0.250000
vt 0.101560 0.242180
vt 0.097650 0.234370
vt 0.171880 0.257820
vt 0.125000 0.355460
vt 0.179680 0.355460
vt 0.171870 0.257820
vt 0.128910 0.265620
vt 0.125000 0.375000
vt 0.179680 0.355470
vt 0.125000 0.355470
vt 0.179680 0.375000
vt 0.175780 0.355460
vt 0.175790 0.355470
vt 0.175780 0.355470
vt 0.117180 0.101560
vt 0.089850 0.125000
vt 0.078130 0.078130
vt 0.078130 0.078120
vt 0.082040 0.035160
vt 0.117180 0.101570
vt 0.023440 0.125000
vt 0.089840 0.125000
vt 0.078120 0.078120
vt 0.019540 0.054690
vt 0.019540 0.054680
vt 0.082030 0.035160
vt 0.082030 0.035150
vt 0.000000 0.007820
vt 0.035160 0.125000
vt 0.082030 0.125000
vt 0.058600 0.093750
vt 0.058590 0.093750
vt 0.000000 0.093750
vt 0.082040 0.035150
vt 0.109380 0.019540
vt 0.082040 0.125000
vt 0.117180 0.093750
vt 0.183600 0.550790
vt 0.242180 0.554680
vt 0.238290 0.625000
vt 0.183600 0.550780
vt 0.207040 0.507820
vt 0.125000 0.554680
vt 0.183590 0.550790
vt 0.128910 0.625000
vt 0.160160 0.507820
vt 0.183590 0.550780
vt 0.183590 0.625000
vt 0.207030 0.507820
vt 0.183600 0.625000
vt 0.238280 0.625000
vt 0.179690 0.429680
vt 0.242180 0.382820
vt 0.207040 0.500000
vt 0.207030 0.500000
vt 0.156250 0.500000
vt 0.179690 0.429690
vt 0.125000 0.382820
vt 0.179680 0.429680
vt 0.136710 0.023430
vt 0.125000 0.007820
vt 0.132820 0.062500
vt 0.187500 0.007820
vt 0.171880 0.023430
vt 0.171880 0.062500
vt 0.152340 0.019540
vt 0.152340 0.062500
vt 0.136720 0.023430
vt 0.171870 0.023440
vt 0.152350 0.062500
vt 0.171870 0.062500
vt 0.171870 0.023430
vt 0.152350 0.019540
vt 0.082030 0.976570
vt 0.058600 0.984370
vt 0.082040 0.976570
vt 0.085930 0.996090
vt 0.031250 0.976570
vt 0.058590 0.984370
vt 0.027350 0.996090
vt 0.156250 0.976560
vt 0.117190 1.000000
vt 0.117190 0.968750
vt 0.156250 0.976570
vt 0.152350 0.996090
vt 0.082040 0.976560
vt 0.070320 0.882820
vt 0.082030 0.976560
vt 0.117180 1.000000
vt 0.117180 0.968750
vt 0.085940 0.996090
vt 0.125000 0.882820
vt 0.031250 0.976560
vt 0.000000 0.882820
vt 0.054680 0.882820
vt 0.054690 0.882820
vt 0.070310 0.882820
vt 0.148440 0.078120
vt 0.156250 0.074220
vt 0.144540 0.074220
vt 0.156250 0.085930
vt 0.179680 0.097660
vt 0.175790 0.109370
vt 0.179680 0.121090
vt 0.164070 0.109370
vt 0.179680 0.121100
vt 0.164070 0.125000
vt 0.175790 0.109380
vt 0.148440 0.078130
vt 0.164060 0.078130
vt 0.175780 0.109380
vt 0.164070 0.117180
vt 0.164070 0.109380
vt 0.042970 0.875000
vt 0.066400 0.839840
vt 0.054690 0.757820
vt 0.089840 0.765620
vt 0.066410 0.839840
vt 0.000000 0.875000
vt 0.042960 0.875000
vt 0.027350 0.765630
vt 0.054680 0.757820
vt 0.027350 0.765620
vt 0.109380 0.851560
vt 0.125000 0.875000
vt 0.125000 0.789070
vt 0.027340 0.765630
vt 0.000000 0.789060
vt 0.109370 0.851560
vt 0.089850 0.765630
vt 0.125000 0.789060
vt 0.085930 0.710940
vt 0.054690 0.726560
vt 0.085930 0.734370
vt 0.054690 0.710940
vt 0.054680 0.726560
vt 0.031250 0.710940
vt 0.031250 0.734370
vt 0.054680 0.710940
vt 0.156250 0.710940
vt 0.117190 0.750000
vt 0.156250 0.734370
vt 0.125000 0.710940
vt 0.117180 0.750000
vt 0.085940 0.710940
vt 0.085940 0.734370
vt 0.085930 0.710930
vt 0.058600 0.632820
vt 0.054690 0.710930
vt 0.085930 0.632820
vt 0.058590 0.632820
vt 0.031250 0.710930
vt 0.031250 0.632820
vt 0.000000 0.632820
vt 0.000000 0.710930
vt 0.125000 0.632820
vt 0.085940 0.710930
vt 0.125000 0.710930
vt 0.085940 0.632820
vt 0.187500 0.351560
vt 0.234380 0.320320
vt 0.242180 0.335930
vt 0.203130 0.324210
vt 0.234370 0.320320
vt 0.199220 0.375000
vt 0.242180 0.335940
vt 0.234380 0.375000
vt 0.175790 0.183590
vt 0.179680 0.171870
vt 0.171880 0.132820
vt 0.175780 0.183590
vt 0.140630 0.144540
vt 0.128910 0.199210
vt 0.140630 0.144530
vt 0.125000 0.195310
vt 0.140620 0.144540
vt 0.136720 0.248050
vt 0.167960 0.248050
vt 0.140630 0.248050
vt 0.171870 0.248050
vt 0.167970 0.248050
vt 0.171880 0.250000
vt 0.175780 0.183600
vt 0.167970 0.250000
vt 0.179680 0.171880
vt 0.167960 0.250000
vt 0.128910 0.199220
vt 0.140630 0.250000
vt 0.140620 0.250000
vt 0.125000 0.195320
vt 0.136720 0.250000
vt 0.128900 0.875000
vt 0.105470 0.851560
vt 0.003910 0.875000
vt 0.105460 0.851560
vt 0.152350 0.710940
vt 0.117190 0.710940
vt 0.152340 0.710940
vt 0.082030 0.710940
vt 0.082030 0.734370
vt 0.027350 0.710940
vt 0.082040 0.710940
vt 0.082040 0.734370
vt 0.117180 0.710940
vt 0.117190 0.632820
vt 0.152340 0.710930
vt 0.117190 0.710930
vt 0.152340 0.632820
vt 0.054690 0.632820
vt 0.082030 0.710930
vt 0.082030 0.632820
vt 0.027350 0.710930
vt 0.054680 0.632820
vt 0.054680 0.710930
vt 0.027350 0.632820
vt 0.082040 0.710930
vt 0.117180 0.632820
vt 0.117180 0.710930
vt 0.082040 0.632820
s 0
usemtl Hostage
f 1/1/1 2/2/1 3/3/1
f 1/4/2 4/5/1 2/2/1
f 1/4/3 5/6/4 4/5/4
f 6/7/5 5/8/5 7/9/5
f 6/7/5 4/10/5 5/8/5
f 8/11/6 2/12/7 9/13/6
f 8/14/8 3/15/6 2/12/6
f 7/16/9 10/17/9 6/18/9
f 7/16/9 11/19/10 10/17/9
f 12/20/11 13/21/11 14/22/11
f 12/20/12 15/23/12 13/24/12
f 16/25/13 17/26/13 14/27/13
f 16/25/13 18/28/13 17/29/13
f 17/26/14 12/20/14 14/22/14
f 19/30/15 20/31/15 21/31/15
f 19/30/15 22/32/15 20/31/15
f 23/33/16 24/34/16 25/35/16
f 24/34/17 23/36/17 26/37/17
f 27/38/18 28/39/18 29/40/18
f 30/33/19 31/40/19 32/41/19
f 33/42/20 34/43/20 35/44/20
f 32/39/21 36/44/21 37/45/21
f 38/46/22 34/43/22 33/47/22
f 39/47/23 24/48/23 26/49/23
f 40/50/24 41/51/24 42/52/24
f 40/50/24 43/53/24 41/51/24
f 44/54/25 40/55/25 42/56/25
f 44/57/25 45/58/25 40/55/25
f 46/59/26 44/60/26 47/61/26
f 46/59/27 45/62/27 44/57/27
f 48/36/28 49/63/28 50/64/28
f 48/33/28 51/52/29 49/65/28
f 41/63/30 46/66/30 47/67/30
f 41/68/31 43/53/31 46/66/31
f 52/67/32 50/64/32 49/63/32
f 53/69/33 54/70/33 47/61/33
f 47/61/34 44/60/34 53/69/34
f 53/71/35 44/60/35 55/72/35
f 42/56/36 55/72/36 44/73/36
f 42/56/36 56/33/36 55/74/37
f 54/75/38 57/76/38 56/77/38
f 54/75/39 58/78/40 57/76/39
f 53/79/41 59/80/41 60/81/41
f 53/79/41 55/82/41 59/83/41
f 60/84/42 57/76/42 58/78/42
f 60/84/42 59/80/42 57/76/43
f 53/85/44 58/78/44 54/75/44
f 53/85/44 60/86/44 58/78/44
f 59/87/45 56/88/45 57/89/45
f 59/83/46 55/82/46 56/77/46
f 61/90/47 62/91/47 63/92/47
f 64/93/48 65/94/48 66/69/48
f 67/72/49 68/95/49 69/96/49
f 70/96/50 71/91/50 72/74/50
f 73/97/51 74/98/51 75/99/51
f 76/99/52 72/72/52 77/97/52
f 78/97/53 66/71/53 79/100/53
f 65/101/54 79/100/54 66/69/54
f 80/102/55 81/103/55 82/104/55
f 80/102/55 83/105/55 81/103/55
f 80/106/56 84/107/56 83/108/56
f 80/106/56 85/109/56 84/107/56
f 86/110/57 87/111/57 74/112/57
f 88/113/58 89/114/58 90/115/58
f 91/116/59 33/117/59 92/118/59
f 84/119/60 91/116/60 83/108/60
f 33/120/61 91/116/61 84/121/61
f 93/122/62 94/105/62 95/123/62
f 96/124/63 90/123/63 97/125/63
f 95/115/64 94/108/64 98/126/64
f 83/105/65 86/122/65 81/127/65
f 81/127/66 86/110/66 74/128/66
f 99/129/67 100/130/67 101/131/67
f 100/130/68 99/132/68 102/133/68
f 103/134/69 100/135/69 102/133/69
f 103/136/70 102/137/70 104/138/70
f 105/139/71 65/140/71 106/129/71
f 107/141/72 108/142/72 109/143/72
f 110/144/73 111/145/73 69/144/73
f 110/146/74 93/147/73 111/148/73
f 112/149/75 29/150/75 113/151/75
f 112/149/75 114/150/75 29/150/75
f 24/152/76 115/153/76 25/154/76
f 24/155/76 109/156/76 115/157/76
f 108/158/77 115/157/77 109/143/77
f 108/158/78 116/159/78 115/151/78
f 112/160/79 113/151/79 117/161/79
f 118/137/80 119/155/81 120/138/81
f 101/162/82 121/139/82 99/129/82
f 122/163/83 61/164/83 63/165/83
f 122/163/84 107/166/84 61/140/84
f 122/167/85 123/168/85 108/142/85
f 124/168/86 111/148/86 125/169/86
f 107/166/87 122/170/87 108/142/87
f 126/171/88 127/172/88 128/173/88
f 126/174/89 129/175/89 127/172/89
f 130/176/90 128/177/90 127/178/90
f 130/176/90 61/179/90 128/177/90
f 131/174/91 132/172/91 133/175/91
f 131/171/91 134/180/92 132/172/91
f 39/176/93 134/181/93 24/179/93
f 39/176/93 132/178/93 134/182/93
f 135/183/94 136/184/94 137/185/94
f 138/186/95 139/187/95 140/183/95
f 141/184/96 135/183/96 142/185/96
f 136/184/97 135/188/97 141/184/97
f 143/186/98 140/183/98 144/187/98
f 145/189/99 137/185/99 136/190/99
f 146/191/100 147/189/100 148/192/100
f 149/193/101 139/194/101 138/186/101
f 139/195/102 149/193/102 150/196/102
f 142/185/103 151/189/103 141/190/103
f 152/189/104 153/191/104 154/192/104
f 155/197/105 156/198/105 157/199/105
f 157/200/106 158/201/106 155/197/106
f 144/194/107 159/193/107 143/186/107
f 159/193/108 144/195/108 160/196/108
f 161/183/109 162/202/109 163/203/109
f 164/202/110 161/183/110 163/203/110
f 157/199/111 156/204/111 165/205/111
f 166/206/112 167/207/112 168/208/112
f 166/209/112 169/210/112 167/207/112
f 170/211/113 166/212/113 171/213/113
f 170/211/113 172/214/113 166/215/113
f 171/213/114 166/212/114 173/216/114
f 169/217/115 174/209/115 172/214/115
f 173/218/116 166/206/116 168/219/116
f 175/220/117 176/221/117 177/222/117
f 177/223/118 178/224/118 175/225/118
f 178/224/119 179/226/119 175/227/119
f 180/228/120 163/229/120 162/230/120
f 163/231/121 181/232/121 164/233/121
f 182/234/122 162/230/122 183/235/122
f 182/234/123 180/236/124 162/230/122
f 181/237/125 183/238/125 164/239/125
f 181/240/126 182/241/126 183/238/125
f 184/242/127 185/55/127 186/243/127
f 184/244/127 187/245/127 185/55/127
f 188/50/128 189/246/128 190/247/128
f 188/50/128 191/248/129 189/246/128
f 189/249/130 192/250/131 193/251/131
f 189/252/132 191/253/132 192/250/130
f 194/254/133 195/255/133 196/97/133
f 194/256/134 186/243/134 195/255/134
f 197/257/135 184/254/135 198/258/135
f 197/257/136 187/259/136 184/244/136
f 199/97/137 198/258/137 184/254/137
f 196/97/138 200/260/138 193/251/138
f 189/249/139 193/251/139 200/260/139
f 189/261/140 200/262/140 201/263/140
f 201/264/141 190/247/141 189/261/141
f 201/264/142 195/265/142 190/243/142
f 195/266/143 202/267/143 196/268/143
f 195/266/143 203/269/143 202/267/143
f 201/270/144 204/271/144 205/272/144
f 201/270/144 200/273/144 204/271/144
f 205/274/145 202/275/145 203/78/145
f 205/272/146 204/276/146 202/275/146
f 201/277/147 203/269/147 195/277/147
f 201/277/147 205/278/147 203/269/147
f 204/279/148 196/280/148 202/275/148
f 204/279/148 200/281/148 196/280/148
f 15/282/149 206/283/149 207/284/149
f 208/285/150 209/284/150 210/286/150
f 211/287/151 8/288/151 212/289/151
f 213/290/152 212/291/152 8/282/152
f 214/292/153 215/293/153 216/294/153
f 212/295/154 217/296/154 211/287/154
f 210/286/155 218/297/155 208/298/155
f 219/299/156 208/298/156 218/292/156
f 220/300/157 209/301/157 208/302/157
f 220/300/157 221/303/157 209/301/157
f 213/304/158 222/305/158 212/306/158
f 213/304/159 223/307/159 222/305/159
f 222/308/160 217/309/160 212/310/160
f 222/308/161 224/311/161 217/309/161
f 219/312/162 220/313/162 208/314/162
f 219/309/162 225/311/162 220/313/162
f 220/315/163 226/316/163 221/317/163
f 220/315/164 227/318/164 226/316/164
f 228/319/165 222/320/165 223/317/165
f 228/319/166 229/321/166 222/320/166
f 222/320/167 230/322/167 224/323/167
f 222/320/167 229/321/167 230/322/167
f 231/324/168 220/325/168 225/326/168
f 231/324/168 227/327/168 220/325/168
f 232/328/169 233/329/169 234/330/169
f 232/328/169 235/331/169 233/332/169
f 236/333/170 234/334/170 237/335/170
f 236/333/171 232/328/171 234/334/171
f 238/336/172 234/337/172 233/338/172
f 238/339/173 235/340/173 239/341/173
f 238/339/174 233/338/174 235/342/174
f 232/343/175 239/341/175 235/344/175
f 236/345/176 240/346/176 241/347/176
f 236/345/176 237/348/176 240/349/176
f 237/350/177 238/351/177 240/352/177
f 237/350/177 234/353/177 238/336/177
f 240/354/178 239/355/178 241/356/178
f 240/352/178 238/351/178 239/341/178
f 241/357/179 232/358/179 236/359/179
f 241/357/179 239/341/179 232/358/179
f 242/360/180 243/361/180 244/294/180
f 245/296/181 246/295/181 247/362/181
f 248/283/182 18/282/182 249/284/182
f 250/284/183 251/285/183 252/286/183
f 11/288/184 247/362/184 246/289/184
f 246/291/185 253/290/185 11/282/185
f 254/363/186 252/286/186 251/298/186
f 251/298/187 255/299/187 254/361/187
f 245/309/188 256/364/188 246/310/188
f 245/309/188 257/365/188 256/366/188
f 250/301/189 258/367/189 251/368/189
f 250/301/189 259/303/189 258/367/189
f 256/369/190 253/304/190 246/306/190
f 256/369/190 260/307/190 253/304/190
f 258/370/191 255/312/191 251/371/191
f 258/370/191 261/372/191 255/312/191
f 262/373/192 256/374/192 257/375/192
f 262/373/192 263/376/192 256/374/192
f 264/377/193 258/378/193 259/317/193
f 264/377/194 265/379/195 258/378/196
f 256/380/197 266/381/197 260/382/197
f 256/380/197 263/383/197 266/381/197
f 258/384/198 267/385/198 261/386/198
f 258/384/198 265/387/198 267/385/198
f 268/329/199 269/328/199 270/330/199
f 268/332/200 271/331/200 269/328/200
f 270/334/201 272/333/201 273/335/201
f 270/334/202 269/328/202 272/333/202
f 270/337/203 274/336/203 268/338/203
f 271/340/204 274/339/204 275/341/204
f 271/342/205 268/338/205 274/339/205
f 275/341/206 269/343/206 271/344/206
f 276/346/207 272/345/207 277/347/207
f 276/349/207 273/348/207 272/345/207
f 274/351/208 273/350/208 276/352/208
f 274/336/208 270/353/208 273/350/208
f 275/355/209 276/354/209 277/356/209
f 275/341/210 274/351/210 276/352/210
f 269/358/211 277/357/211 272/359/211
f 269/358/211 275/341/211 277/357/211
