mtllib 1A.SHP_posed.mtl
usemtl mat0
v -66.92302703857422 22.16994476318359 -20.472112655639652
v -66.59632873535156 -9.275145530700687 -23.297428131103516
v -53.24458694458008 14.894351005554197 -9.248651504516603
v -75.86009979248047 26.775138854980465 -17.01945495605469
v -86.28880310058594 -2.234188795089724 -16.61676025390625
v -66.59632873535156 -9.275145530700687 -23.297428131103516
v -75.86009979248047 26.775138854980465 -17.01945495605469
v -66.59632873535156 -9.275145530700687 -23.297428131103516
v -66.92302703857422 22.16994476318359 -20.472112655639652
v -66.59632873535156 -9.275145530700687 -23.297428131103516
v -70.06216430664062 -44.602447509765625 -13.563098907470698
v -53.24458694458008 14.894351005554197 -9.248651504516603
v -64.87297058105469 1.1312042474746722 14.672796249389648
v -53.24458694458008 14.894351005554197 -9.248651504516603
v -70.06216430664062 -44.602447509765625 -13.563098907470698
v -70.06216430664062 -44.602447509765625 -13.563098907470698
v -57.043331146240234 -61.77946090698242 12.426520347595222
v -64.87297058105469 1.1312042474746722 14.672796249389648
v -64.87297058105469 1.1312042474746722 14.672796249389648
v -57.043331146240234 -61.77946090698242 12.426520347595222
v -82.2945327758789 -5.437461853027342 12.154491424560547
v -82.2945327758789 -5.437461853027342 12.154491424560547
v -88.40747833251953 -43.71366500854492 -11.40450000762939
v -86.28880310058594 -2.234188795089724 -16.61676025390625
v -66.59632873535156 -9.275145530700687 -23.297428131103516
v -86.28880310058594 -2.234188795089724 -16.61676025390625
v -88.40747833251953 -43.71366500854492 -11.40450000762939
v -88.40747833251953 -43.71366500854492 -11.40450000762939
v -70.06216430664062 -44.602447509765625 -13.563098907470698
v -66.59632873535156 -9.275145530700687 -23.297428131103516
v -53.24458694458008 14.894351005554197 -9.248651504516603
v -64.87297058105469 1.1312042474746722 14.672796249389648
v -56.24515151977539 28.677949905395508 2.5415561199188197
v -64.87297058105469 1.1312042474746722 14.672796249389648
v -82.2945327758789 -5.437461853027342 12.154491424560547
v -74.24530029296875 31.35124397277832 1.620602369308468
v -56.24515151977539 28.677949905395508 2.5415561199188197
v -64.87297058105469 1.1312042474746722 14.672796249389648
v -74.24530029296875 31.35124397277832 1.620602369308468
v -74.24530029296875 31.35124397277832 1.620602369308468
v -82.2945327758789 -5.437461853027342 12.154491424560547
v -86.28880310058594 -2.234188795089724 -16.61676025390625
v -74.24530029296875 31.35124397277832 1.620602369308468
v -86.28880310058594 -2.234188795089724 -16.61676025390625
v -75.86009979248047 26.775138854980465 -17.01945495605469
v -62.00392532348633 -61.4045295715332 -21.547763824462884
v -81.25839233398438 -89.53970336914062 -20.724647521972646
v -63.590919494628906 -85.40028381347656 -22.37557792663573
v -75.62045288085938 -96.85958099365234 -1.7606569528579594
v -58.73776626586914 -92.17635345458984 -1.9664659500121957
v -63.590919494628906 -85.40028381347656 -22.37557792663573
v -75.62045288085938 -96.85958099365234 -1.7606569528579594
v -63.590919494628906 -85.40028381347656 -22.37557792663573
v -81.25839233398438 -89.53970336914062 -20.724647521972646
v -63.590919494628906 -85.40028381347656 -22.37557792663573
v -58.73776626586914 -92.17635345458984 -1.9664659500121957
v -57.043331146240234 -61.77946090698242 12.426520347595222
v -57.043331146240234 -61.77946090698242 12.426520347595222
v -62.00392532348633 -61.4045295715332 -21.547763824462884
v -63.590919494628906 -85.40028381347656 -22.37557792663573
v -75.62045288085938 -96.85958099365234 -1.7606569528579594
v -57.043331146240234 -61.77946090698242 12.426520347595222
v -58.73776626586914 -92.17635345458984 -1.9664659500121957
v -70.06216430664062 -44.602447509765625 -13.563098907470698
v -62.00392532348633 -61.4045295715332 -21.547763824462884
v -57.043331146240234 -61.77946090698242 12.426520347595222
v -70.06216430664062 -44.602447509765625 -13.563098907470698
v -88.40747833251953 -43.71366500854492 -11.40450000762939
v -81.25839233398438 -89.53970336914062 -20.724647521972646
v -81.25839233398438 -89.53970336914062 -20.724647521972646
v -62.00392532348633 -61.4045295715332 -21.547763824462884
v -70.06216430664062 -44.602447509765625 -13.563098907470698
v -88.40747833251953 -43.71366500854492 -11.40450000762939
v -82.2945327758789 -5.437461853027342 12.154491424560547
v -75.62045288085938 -96.85958099365234 -1.7606569528579594
v -88.40747833251953 -43.71366500854492 -11.40450000762939
v -75.62045288085938 -96.85958099365234 -1.7606569528579594
v -81.25839233398438 -89.53970336914062 -20.724647521972646
v -75.62045288085938 -96.85958099365234 -1.7606569528579594
v -82.2945327758789 -5.437461853027342 12.154491424560547
v -57.043331146240234 -61.77946090698242 12.426520347595222
v -53.24458694458008 14.894351005554197 -9.248651504516603
v -56.24515151977539 28.677949905395508 2.5415561199188197
v -38.94614791870117 75.34811401367188 -6.8201074600219815
v -66.92302703857422 22.16994476318359 -20.472112655639652
v -53.24458694458008 14.894351005554197 -9.248651504516603
v -38.94614791870117 75.34811401367188 -6.8201074600219815
v -75.86009979248047 26.775138854980465 -17.01945495605469
v -66.92302703857422 22.16994476318359 -20.472112655639652
v -38.94614791870117 75.34811401367188 -6.8201074600219815
v -74.24530029296875 31.35124397277832 1.620602369308468
v -55.29216003417969 97.57624816894531 34.451354980468736
v -37.68159866333008 69.68765258789062 23.698087692260735
v -74.24530029296875 31.35124397277832 1.620602369308468
v -37.68159866333008 69.68765258789062 23.698087692260735
v -56.24515151977539 28.677949905395508 2.5415561199188197
v -75.86009979248047 26.775138854980465 -17.01945495605469
v -57.63325500488281 109.21166229248047 6.898925781249987
v -55.29216003417969 97.57624816894531 34.451354980468736
v -75.86009979248047 26.775138854980465 -17.01945495605469
v -55.29216003417969 97.57624816894531 34.451354980468736
v -74.24530029296875 31.35124397277832 1.620602369308468
v -38.94614791870117 75.34811401367188 -6.8201074600219815
v -56.24515151977539 28.677949905395508 2.5415561199188197
v -37.68159866333008 69.68765258789062 23.698087692260735
v -75.86009979248047 26.775138854980465 -17.01945495605469
v -38.94614791870117 75.34811401367188 -6.8201074600219815
v -57.63325500488281 109.21166229248047 6.898925781249987
v 68.6456298828125 28.13146591186523 -18.34398460388184
v 55.474525451660156 20.435794830322266 -6.841875076293948
v 80.21632385253906 -7.795605659484864 -3.8326056003570548
v 77.9188232421875 33.58736801147461 -14.073028564453129
v 68.6456298828125 28.13146591186523 -18.34398460388184
v 80.21632385253906 -7.795605659484864 -3.8326056003570548
v 77.9188232421875 33.58736801147461 -14.073028564453129
v 80.21632385253906 -7.795605659484864 -3.8326056003570548
v 94.42144012451172 5.393964767456056 6.475148677825927
v 80.21632385253906 -7.795605659484864 -3.8326056003570548
v 55.474525451660156 20.435794830322266 -6.841875076293948
v 66.42094421386719 -34.16530990600586 23.186035156250004
v 80.21632385253906 -7.795605659484864 -3.8326056003570548
v 66.42094421386719 -34.16530990600586 23.186035156250004
v 86.48397064208984 -34.476436614990234 20.660528182983402
v 66.42094421386719 -34.16530990600586 23.186035156250004
v 55.474525451660156 20.435794830322266 -6.841875076293948
v 60.51302719116211 12.926561355590824 23.192790985107422
v 60.51302719116211 12.926561355590824 23.192790985107422
v 73.15264129638672 -25.79147338867187 39.99565124511719
v 66.42094421386719 -34.16530990600586 23.186035156250004
v 73.15264129638672 -25.79147338867187 39.99565124511719
v 60.51302719116211 12.926561355590824 23.192790985107422
v 78.82522583007812 17.33468627929688 25.68913650512695
v 78.82522583007812 17.33468627929688 25.68913650512695
v 81.40866088867188 -76.0257568359375 42.082355499267585
v 73.15264129638672 -25.79147338867187 39.99565124511719
v 78.82522583007812 17.33468627929688 25.68913650512695
v 94.42144012451172 5.393964767456056 6.475148677825927
v 86.48397064208984 -34.476436614990234 20.660528182983402
v 78.82522583007812 17.33468627929688 25.68913650512695
v 86.48397064208984 -34.476436614990234 20.660528182983402
v 81.40866088867188 -76.0257568359375 42.082355499267585
v 94.42144012451172 5.393964767456056 6.475148677825927
v 80.21632385253906 -7.795605659484864 -3.8326056003570548
v 86.48397064208984 -34.476436614990234 20.660528182983402
v 55.474525451660156 20.435794830322266 -6.841875076293948
v 56.13048553466797 33.09992599487305 4.121220111846919
v 60.51302719116211 12.926561355590824 23.192790985107422
v 60.51302719116211 12.926561355590824 23.192790985107422
v 56.13048553466797 33.09992599487305 4.121220111846919
v 73.89237213134766 37.15461730957031 4.39484596252441
v 73.89237213134766 37.15461730957031 4.39484596252441
v 78.82522583007812 17.33468627929688 25.68913650512695
v 60.51302719116211 12.926561355590824 23.192790985107422
v 73.89237213134766 37.15461730957031 4.39484596252441
v 77.9188232421875 33.58736801147461 -14.073028564453129
v 94.42144012451172 5.393964767456056 6.475148677825927
v 73.89237213134766 37.15461730957031 4.39484596252441
v 94.42144012451172 5.393964767456056 6.475148677825927
v 78.82522583007812 17.33468627929688 25.68913650512695
v 60.19112014770508 -51.287315368652344 20.944110870361335
v 61.802886962890625 -75.04560852050781 24.40035629272462
v 78.85447692871094 -73.76610565185547 20.325284957885753
v 81.40866088867188 -76.0257568359375 42.082355499267585
v 78.85447692871094 -73.76610565185547 20.325284957885753
v 61.802886962890625 -75.04560852050781 24.40035629272462
v 81.40866088867188 -76.0257568359375 42.082355499267585
v 61.802886962890625 -75.04560852050781 24.40035629272462
v 64.35707092285156 -77.30525970458984 46.157428741455085
v 65.63158416748047 -45.320476531982415 53.925895690917976
v 64.35707092285156 -77.30525970458984 46.157428741455085
v 61.802886962890625 -75.04560852050781 24.40035629272462
v 61.802886962890625 -75.04560852050781 24.40035629272462
v 60.19112014770508 -51.287315368652344 20.944110870361335
v 65.63158416748047 -45.320476531982415 53.925895690917976
v 81.40866088867188 -76.0257568359375 42.082355499267585
v 64.35707092285156 -77.30525970458984 46.157428741455085
v 65.63158416748047 -45.320476531982415 53.925895690917976
v 66.42094421386719 -34.16530990600586 23.186035156250004
v 73.15264129638672 -25.79147338867187 39.99565124511719
v 65.63158416748047 -45.320476531982415 53.925895690917976
v 65.63158416748047 -45.320476531982415 53.925895690917976
v 60.19112014770508 -51.287315368652344 20.944110870361335
v 66.42094421386719 -34.16530990600586 23.186035156250004
v 78.85447692871094 -73.76610565185547 20.325284957885753
v 86.48397064208984 -34.476436614990234 20.660528182983402
v 66.42094421386719 -34.16530990600586 23.186035156250004
v 66.42094421386719 -34.16530990600586 23.186035156250004
v 60.19112014770508 -51.287315368652344 20.944110870361335
v 78.85447692871094 -73.76610565185547 20.325284957885753
v 86.48397064208984 -34.476436614990234 20.660528182983402
v 78.85447692871094 -73.76610565185547 20.325284957885753
v 81.40866088867188 -76.0257568359375 42.082355499267585
v 81.40866088867188 -76.0257568359375 42.082355499267585
v 65.63158416748047 -45.320476531982415 53.925895690917976
v 73.15264129638672 -25.79147338867187 39.99565124511719
v 55.474525451660156 20.435794830322266 -6.841875076293948
v 36.808807373046875 78.89032745361328 -4.929281711578379
v 56.13048553466797 33.09992599487305 4.121220111846919
v 68.6456298828125 28.13146591186523 -18.34398460388184
v 36.808807373046875 78.89032745361328 -4.929281711578379
v 55.474525451660156 20.435794830322266 -6.841875076293948
v 77.9188232421875 33.58736801147461 -14.073028564453129
v 36.808807373046875 78.89032745361328 -4.929281711578379
v 68.6456298828125 28.13146591186523 -18.34398460388184
v 73.89237213134766 37.15461730957031 4.39484596252441
v 56.13048553466797 33.09992599487305 4.121220111846919
v 34.15200424194336 72.21176147460938 25.292201995849602
v 73.89237213134766 37.15461730957031 4.39484596252441
v 34.15200424194336 72.21176147460938 25.292201995849602
v 48.173274993896484 101.85842895507812 36.820034027099595
v 77.9188232421875 33.58736801147461 -14.073028564453129
v 73.89237213134766 37.15461730957031 4.39484596252441
v 48.173274993896484 101.85842895507812 36.820034027099595
v 77.9188232421875 33.58736801147461 -14.073028564453129
v 48.173274993896484 101.85842895507812 36.820034027099595
v 51.1107063293457 112.27188110351562 9.839830398559556
v 34.15200424194336 72.21176147460938 25.292201995849602
v 56.13048553466797 33.09992599487305 4.121220111846919
v 36.808807373046875 78.89032745361328 -4.929281711578379
v 77.9188232421875 33.58736801147461 -14.073028564453129
v 51.1107063293457 112.27188110351562 9.839830398559556
v 36.808807373046875 78.89032745361328 -4.929281711578379
v -2.464996337890625 154.0980682373047 18.16208839416502
v -22.041723251342773 123.45638275146484 15.18832111358641
v -20.175981521606445 117.29410552978516 -16.882621765136733
v -2.464996337890625 154.0980682373047 18.16208839416502
v -20.175981521606445 117.29410552978516 -16.882621765136733
v 21.35394287109375 117.81696319580078 -10.638274192810073
v 12.566548347473145 123.89209747314453 20.391944885253892
v -2.464996337890625 154.0980682373047 18.16208839416502
v 21.35394287109375 117.81696319580078 -10.638274192810073
v -2.464996337890625 154.0980682373047 18.16208839416502
v 11.545210838317871 140.57272338867188 35.960380554199205
v 17.55862808227539 175.14675903320312 54.46644973754881
v -9.451188087463379 182.95924377441406 37.840118408203104
v -24.441364288330078 175.14918518066406 54.49237060546873
v -19.454784393310547 140.5745086669922 35.97951507568358
v -9.451188087463379 182.95924377441406 37.840118408203104
v -19.454784393310547 140.5745086669922 35.97951507568358
v -2.464996337890625 154.0980682373047 18.16208839416502
v 17.55862808227539 175.14675903320312 54.46644973754881
v -9.451188087463379 182.95924377441406 37.840118408203104
v -2.464996337890625 154.0980682373047 18.16208839416502
v -24.441364288330078 175.14918518066406 54.49237060546873
v -16.433704376220703 141.90660095214844 70.01036071777342
v -19.454784393310547 140.5745086669922 35.97951507568358
v -24.441364288330078 175.14918518066406 54.49237060546873
v -17.424345016479492 164.68966674804688 83.04687499999999
v -16.433704376220703 141.90660095214844 70.01036071777342
v 9.566291809082031 141.9051055908203 69.9943161010742
v 17.55862808227539 175.14675903320312 54.46644973754881
v 11.545210838317871 140.57272338867188 35.960380554199205
v 9.575277328491211 165.42564392089844 82.35490417480467
v 17.55862808227539 175.14675903320312 54.46644973754881
v 9.566291809082031 141.9051055908203 69.9943161010742
v -17.424345016479492 164.68966674804688 83.04687499999999
v -3.436441659927368 186.87713623046875 61.366127014160135
v 9.575277328491211 165.42564392089844 82.35490417480467
v -10.448274612426758 119.4966049194336 48.49369812011717
v 2.5520970821380615 118.7583236694336 49.160984039306626
v -3.4556117057800293 125.70761108398438 36.02268981933592
v -19.454784393310547 140.5745086669922 35.97951507568358
v -3.4556117057800293 125.70761108398438 36.02268981933592
v -6.032171726226807 103.85680389404297 31.42256927490233
v -19.454784393310547 140.5745086669922 35.97951507568358
v -22.041723251342773 123.45638275146484 15.18832111358641
v -2.464996337890625 154.0980682373047 18.16208839416502
v -22.041723251342773 123.45638275146484 15.18832111358641
v -19.454784393310547 140.5745086669922 35.97951507568358
v -6.032171726226807 103.85680389404297 31.42256927490233
v -16.433704376220703 141.90660095214844 70.01036071777342
v -3.4372706413269043 130.78977966308594 65.26599884033202
v -10.448274612426758 119.4966049194336 48.49369812011717
v -3.436441659927368 186.87713623046875 61.366127014160135
v -24.441364288330078 175.14918518066406 54.49237060546873
v -9.451188087463379 182.95924377441406 37.840118408203104
v -24.441364288330078 175.14918518066406 54.49237060546873
v -3.436441659927368 186.87713623046875 61.366127014160135
v -17.424345016479492 164.68966674804688 83.04687499999999
v -16.433704376220703 141.90660095214844 70.01036071777342
v -10.448274612426758 119.4966049194336 48.49369812011717
v -19.454784393310547 140.5745086669922 35.97951507568358
v -10.448274612426758 119.4966049194336 48.49369812011717
v -3.4556117057800293 125.70761108398438 36.02268981933592
v -19.454784393310547 140.5745086669922 35.97951507568358
v -3.4372706413269043 130.78977966308594 65.26599884033202
v -16.433704376220703 141.90660095214844 70.01036071777342
v 9.566291809082031 141.9051055908203 69.9943161010742
v 2.5520970821380615 118.7583236694336 49.160984039306626
v -10.448274612426758 119.4966049194336 48.49369812011717
v -3.4372706413269043 130.78977966308594 65.26599884033202
v -6.032171726226807 103.85680389404297 31.42256927490233
v -3.4556117057800293 125.70761108398438 36.02268981933592
v 11.545210838317871 140.57272338867188 35.960380554199205
v -2.464996337890625 154.0980682373047 18.16208839416502
v 12.566548347473145 123.89209747314453 20.391944885253892
v 11.545210838317871 140.57272338867188 35.960380554199205
v -6.032171726226807 103.85680389404297 31.42256927490233
v 11.545210838317871 140.57272338867188 35.960380554199205
v 12.566548347473145 123.89209747314453 20.391944885253892
v 2.5520970821380615 118.7583236694336 49.160984039306626
v -3.4372706413269043 130.78977966308594 65.26599884033202
v 9.566291809082031 141.9051055908203 69.9943161010742
v -9.451188087463379 182.95924377441406 37.840118408203104
v 17.55862808227539 175.14675903320312 54.46644973754881
v -3.436441659927368 186.87713623046875 61.366127014160135
v 9.575277328491211 165.42564392089844 82.35490417480467
v -3.436441659927368 186.87713623046875 61.366127014160135
v 17.55862808227539 175.14675903320312 54.46644973754881
v 11.545210838317871 140.57272338867188 35.960380554199205
v 2.5520970821380615 118.7583236694336 49.160984039306626
v 9.566291809082031 141.9051055908203 69.9943161010742
v 11.545210838317871 140.57272338867188 35.960380554199205
v -3.4556117057800293 125.70761108398438 36.02268981933592
v 2.5520970821380615 118.7583236694336 49.160984039306626
v 9.566291809082031 141.9051055908203 69.9943161010742
v -16.433704376220703 141.90660095214844 70.01036071777342
v 9.575277328491211 165.42564392089844 82.35490417480467
v -17.424345016479492 164.68966674804688 83.04687499999999
v -3.5878398418426514 -243.13572692871094 -28.506500244140597
v -4.837174892425537 -240.90708923339844 -3.981568336486787
v 20.55430793762207 -241.35182189941406 1.5929067134857473
v 20.55430793762207 -241.35182189941406 1.5929067134857473
v 28.4262752532959 -242.77334594726562 -20.384613037109347
v -3.5878398418426514 -243.13572692871094 -28.506500244140597
v -3.5878398418426514 -243.13572692871094 -28.506500244140597
v -22.507078170776367 -172.5204620361328 7.334067821502707
v -4.837174892425537 -240.90708923339844 -3.981568336486787
v -32.266136169433594 -33.16463088989258 -28.000064849853512
v -25.4665584564209 -23.198966979980465 20.646120071411136
v -22.507078170776367 -172.5204620361328 7.334067821502707
v -32.266136169433594 -33.16463088989258 -28.000064849853512
v -22.507078170776367 -172.5204620361328 7.334067821502707
v -3.5878398418426514 -243.13572692871094 -28.506500244140597
v 20.55430793762207 -241.35182189941406 1.5929067134857473
v 33.15886688232422 -173.49545288085938 19.55503273010256
v 28.4262752532959 -242.77334594726562 -20.384613037109347
v 36.522621154785156 -27.80705833435059 -27.36540603637695
v 28.4262752532959 -242.77334594726562 -20.384613037109347
v 33.15886688232422 -173.49545288085938 19.55503273010256
v 36.522621154785156 -27.80705833435059 -27.36540603637695
v 33.15886688232422 -173.49545288085938 19.55503273010256
v 24.380369186401367 -19.31666755676269 21.106018066406254
v 33.15886688232422 -173.49545288085938 19.55503273010256
v 20.55430793762207 -241.35182189941406 1.5929067134857473
v -4.837174892425537 -240.90708923339844 -3.981568336486787
v 33.15886688232422 -173.49545288085938 19.55503273010256
v -4.837174892425537 -240.90708923339844 -3.981568336486787
v -22.507078170776367 -172.5204620361328 7.334067821502707
v -23.944429397583008 48.597846984863274 -33.14986419677735
v -32.92435073852539 70.78399658203125 31.442207336425774
v -25.4665584564209 -23.198966979980465 20.646120071411136
v -25.4665584564209 -23.198966979980465 20.646120071411136
v -32.266136169433594 -33.16463088989258 -28.000064849853512
v -23.944429397583008 48.597846984863274 -33.14986419677735
v 31.428802490234375 49.29499053955078 -24.824066162109382
v 36.522621154785156 -27.80705833435059 -27.36540603637695
v 24.380369186401367 -19.31666755676269 21.106018066406254
v 31.428802490234375 49.29499053955078 -24.824066162109382
v 24.380369186401367 -19.31666755676269 21.106018066406254
v 19.482458114624023 71.44379425048828 39.32197952270507
v 51.1107063293457 112.27188110351562 9.839830398559556
v 21.35394287109375 117.81696319580078 -10.638274192810073
v 36.485748291015625 83.5225601196289 -15.784122467041026
v 51.1107063293457 112.27188110351562 9.839830398559556
v 36.485748291015625 83.5225601196289 -15.784122467041026
v 36.808807373046875 78.89032745361328 -4.929281711578379
v -57.63325500488281 109.21166229248047 6.898925781249987
v -38.94614791870117 75.34811401367188 -6.8201074600219815
v -40.13825225830078 83.67716217041016 -18.21907615661622
v -57.63325500488281 109.21166229248047 6.898925781249987
v -40.13825225830078 83.67716217041016 -18.21907615661622
v -20.175981521606445 117.29410552978516 -16.882621765136733
v -37.68159866333008 69.68765258789062 23.698087692260735
v -40.13825225830078 83.67716217041016 -18.21907615661622
v -38.94614791870117 75.34811401367188 -6.8201074600219815
v -37.503814697265625 83.9605484008789 34.88440322875976
v -37.68159866333008 69.68765258789062 23.698087692260735
v -55.29216003417969 97.57624816894531 34.451354980468736
v -37.68159866333008 69.68765258789062 23.698087692260735
v -37.503814697265625 83.9605484008789 34.88440322875976
v -32.92435073852539 70.78399658203125 31.442207336425774
v -22.041723251342773 123.45638275146484 15.18832111358641
v -57.63325500488281 109.21166229248047 6.898925781249987
v -20.175981521606445 117.29410552978516 -16.882621765136733
v -22.041723251342773 123.45638275146484 15.18832111358641
v -55.29216003417969 97.57624816894531 34.451354980468736
v -57.63325500488281 109.21166229248047 6.898925781249987
v -37.503814697265625 83.9605484008789 34.88440322875976
v -55.29216003417969 97.57624816894531 34.451354980468736
v -22.041723251342773 123.45638275146484 15.18832111358641
v -37.68159866333008 69.68765258789062 23.698087692260735
v -32.92435073852539 70.78399658203125 31.442207336425774
v -23.944429397583008 48.597846984863274 -33.14986419677735
v -37.68159866333008 69.68765258789062 23.698087692260735
v -23.944429397583008 48.597846984863274 -33.14986419677735
v -40.13825225830078 83.67716217041016 -18.21907615661622
v 34.15200424194336 72.21176147460938 25.292201995849602
v 19.482458114624023 71.44379425048828 39.32197952270507
v 31.061580657958984 87.20648193359375 38.04901885986327
v 48.173274993896484 101.85842895507812 36.820034027099595
v 34.15200424194336 72.21176147460938 25.292201995849602
v 31.061580657958984 87.20648193359375 38.04901885986327
v 34.15200424194336 72.21176147460938 25.292201995849602
v 36.808807373046875 78.89032745361328 -4.929281711578379
v 36.485748291015625 83.5225601196289 -15.784122467041026
v 12.566548347473145 123.89209747314453 20.391944885253892
v 21.35394287109375 117.81696319580078 -10.638274192810073
v 51.1107063293457 112.27188110351562 9.839830398559556
v 12.566548347473145 123.89209747314453 20.391944885253892
v 51.1107063293457 112.27188110351562 9.839830398559556
v 48.173274993896484 101.85842895507812 36.820034027099595
v 31.061580657958984 87.20648193359375 38.04901885986327
v 12.566548347473145 123.89209747314453 20.391944885253892
v 48.173274993896484 101.85842895507812 36.820034027099595
v 34.15200424194336 72.21176147460938 25.292201995849602
v 36.485748291015625 83.5225601196289 -15.784122467041026
v 31.428802490234375 49.29499053955078 -24.824066162109382
v 34.15200424194336 72.21176147460938 25.292201995849602
v 31.428802490234375 49.29499053955078 -24.824066162109382
v 19.482458114624023 71.44379425048828 39.32197952270507
v -37.503814697265625 83.9605484008789 34.88440322875976
v -6.032171726226807 103.85680389404297 31.42256927490233
v -32.92435073852539 70.78399658203125 31.442207336425774
v -6.032171726226807 103.85680389404297 31.42256927490233
v 19.482458114624023 71.44379425048828 39.32197952270507
v -32.92435073852539 70.78399658203125 31.442207336425774
v -6.032171726226807 103.85680389404297 31.42256927490233
v 12.566548347473145 123.89209747314453 20.391944885253892
v 31.061580657958984 87.20648193359375 38.04901885986327
v -22.041723251342773 123.45638275146484 15.18832111358641
v -6.032171726226807 103.85680389404297 31.42256927490233
v -37.503814697265625 83.9605484008789 34.88440322875976
v -6.032171726226807 103.85680389404297 31.42256927490233
v 31.061580657958984 87.20648193359375 38.04901885986327
v 19.482458114624023 71.44379425048828 39.32197952270507
v 21.35394287109375 117.81696319580078 -10.638274192810073
v -20.175981521606445 117.29410552978516 -16.882621765136733
v -40.13825225830078 83.67716217041016 -18.21907615661622
v -40.13825225830078 83.67716217041016 -18.21907615661622
v 36.485748291015625 83.5225601196289 -15.784122467041026
v 21.35394287109375 117.81696319580078 -10.638274192810073
v -3.5878398418426514 -243.13572692871094 -28.506500244140597
v 28.4262752532959 -242.77334594726562 -20.384613037109347
v -32.266136169433594 -33.16463088989258 -28.000064849853512
v 36.522621154785156 -27.80705833435059 -27.36540603637695
v -22.507078170776367 -172.5204620361328 7.334067821502707
v -25.4665584564209 -23.198966979980465 20.646120071411136
v 33.15886688232422 -173.49545288085938 19.55503273010256
v 24.380369186401367 -19.31666755676269 21.106018066406254
v 36.522621154785156 -27.80705833435059 -27.36540603637695
v 31.428802490234375 49.29499053955078 -24.824066162109382
v -23.944429397583008 48.597846984863274 -33.14986419677735
v 36.522621154785156 -27.80705833435059 -27.36540603637695
v -23.944429397583008 48.597846984863274 -33.14986419677735
v -32.266136169433594 -33.16463088989258 -28.000064849853512
v 24.380369186401367 -19.31666755676269 21.106018066406254
v -25.4665584564209 -23.198966979980465 20.646120071411136
v 19.482458114624023 71.44379425048828 39.32197952270507
v -32.92435073852539 70.78399658203125 31.442207336425774
v -23.944429397583008 48.597846984863274 -33.14986419677735
v 31.428802490234375 49.29499053955078 -24.824066162109382
v -40.13825225830078 83.67716217041016 -18.21907615661622
v 36.485748291015625 83.5225601196289 -15.784122467041026
vt 0.265625 0.7578125
vt 0.265625 0.8359375
vt 0.2421875 0.7578125
vt 0.2890625 0.7578125
vt 0.2890625 0.8359375
vt 0.265625 0.8359375
vt 0.2890625 0.7578125
vt 0.265625 0.8359375
vt 0.265625 0.7578125
vt 0.265625 0.8359375
vt 0.2421875 0.9140625
vt 0.2421875 0.7578125
vt 0.4296875 0.8359375
vt 0.4921875 0.7578125
vt 0.4921875 0.8984375
vt 0.4921875 0.8984375
vt 0.4296875 0.921875
vt 0.4296875 0.8359375
vt 0.4296875 0.8359375
vt 0.4296875 0.921875
vt 0.359375 0.8359375
vt 0.359375 0.8359375
vt 0.2890625 0.9140625
vt 0.2890625 0.8359375
vt 0.265625 0.8359375
vt 0.2890625 0.8359375
vt 0.2890625 0.9140625
vt 0.2890625 0.9140625
vt 0.2421875 0.9140625
vt 0.265625 0.8359375
vt 0.4921875 0.7578125
vt 0.4296875 0.8359375
vt 0.4296875 0.7578125
vt 0.4296875 0.8359375
vt 0.359375 0.8359375
vt 0.359375 0.7578125
vt 0.4296875 0.7578125
vt 0.4296875 0.8359375
vt 0.359375 0.7578125
vt 0.359375 0.7578125
vt 0.359375 0.8359375
vt 0.2890625 0.8359375
vt 0.359375 0.7578125
vt 0.2890625 0.8359375
vt 0.2890625 0.7578125
vt 0.2421875 0.9453125
vt 0.2890625 0.984375
vt 0.2421875 0.984375
vt 0.21875 0.71875
vt 0.21875 0.75
vt 0.15625 0.75
vt 0.21875 0.71875
vt 0.15625 0.75
vt 0.15625 0.71875
vt 0.4921875 0.984375
vt 0.4296875 0.984375
vt 0.4296875 0.921875
vt 0.4296875 0.921875
vt 0.4921875 0.9375
vt 0.4921875 0.984375
vt 0.359375 0.984375
vt 0.4296875 0.921875
vt 0.4296875 0.984375
vt 0.4921875 0.8984375
vt 0.4921875 0.9375
vt 0.4296875 0.921875
vt 0.2421875 0.9140625
vt 0.2890625 0.9140625
vt 0.2890625 0.984375
vt 0.2890625 0.984375
vt 0.2421875 0.9453125
vt 0.2421875 0.9140625
vt 0.2890625 0.9140625
vt 0.359375 0.8359375
vt 0.359375 0.984375
vt 0.2890625 0.9140625
vt 0.359375 0.984375
vt 0.2890625 0.984375
vt 0.359375 0.984375
vt 0.359375 0.8359375
vt 0.4296875 0.921875
vt 0.2265625 0.75
vt 0.265625 0.75
vt 0.2265625 0.625
vt 0.453125 0.75
vt 0.4921875 0.75
vt 0.4921875 0.5625
vt 0.4140625 0.75
vt 0.453125 0.75
vt 0.4921875 0.5625
vt 0.3359375 0.75
vt 0.3359375 0.5625
vt 0.265625 0.625
vt 0.3359375 0.75
vt 0.265625 0.625
vt 0.265625 0.75
vt 0.4140625 0.75
vt 0.4140625 0.5625
vt 0.3359375 0.5625
vt 0.4140625 0.75
vt 0.3359375 0.5625
vt 0.3359375 0.75
vt 0.2265625 0.625
vt 0.265625 0.75
vt 0.265625 0.625
vt 0.4140625 0.75
vt 0.4921875 0.5625
vt 0.4140625 0.5625
vt 0.1484375 0.7578125
vt 0.171875 0.7578125
vt 0.1484375 0.8359375
vt 0.1171875 0.7578125
vt 0.1484375 0.7578125
vt 0.1484375 0.8359375
vt 0.1171875 0.7578125
vt 0.1484375 0.8359375
vt 0.1171875 0.8203125
vt 0.1484375 0.8359375
vt 0.171875 0.7578125
vt 0.171875 0.9140625
vt 0.1484375 0.8359375
vt 0.171875 0.9140625
vt 0.1171875 0.9140625
vt 0.171875 0.9140625
vt 0.171875 0.7578125
vt 0.234375 0.8046875
vt 0.234375 0.8046875
vt 0.234375 0.9140625
vt 0.171875 0.9140625
vt 0.0078125 0.8984375
vt 0.0078125 0.8203125
vt 0.0625 0.8203125
vt 0.0625 0.8203125
vt 0.0625 0.984375
vt 0.0078125 0.8984375
vt 0.0625 0.8203125
vt 0.1171875 0.8203125
vt 0.1171875 0.9140625
vt 0.0625 0.8203125
vt 0.1171875 0.9140625
vt 0.0625 0.984375
vt 0.1171875 0.8203125
vt 0.1484375 0.8359375
vt 0.1171875 0.9140625
vt 0.171875 0.7578125
vt 0.234375 0.7578125
vt 0.234375 0.8046875
vt 0.0078125 0.8203125
vt 0.0078125 0.7578125
vt 0.0625 0.7578125
vt 0.0625 0.7578125
vt 0.0625 0.8203125
vt 0.0078125 0.8203125
vt 0.0625 0.7578125
vt 0.1171875 0.7578125
vt 0.1171875 0.8203125
vt 0.0625 0.7578125
vt 0.1171875 0.8203125
vt 0.0625 0.8203125
vt 0.171875 0.9453125
vt 0.171875 0.984375
vt 0.1171875 0.984375
vt 0.15625 0.625
vt 0.21875 0.625
vt 0.21875 0.65625
vt 0.15625 0.625
vt 0.21875 0.65625
vt 0.15625 0.65625
vt 0.234375 0.9453125
vt 0.234375 0.984375
vt 0.171875 0.984375
vt 0.171875 0.984375
vt 0.171875 0.9453125
vt 0.234375 0.9453125
vt 0.0625 0.984375
vt 0.0078125 0.984375
vt 0.0078125 0.9453125
vt 0.171875 0.9140625
vt 0.234375 0.9140625
vt 0.234375 0.9453125
vt 0.234375 0.9453125
vt 0.171875 0.9453125
vt 0.171875 0.9140625
vt 0.1171875 0.984375
vt 0.1171875 0.9140625
vt 0.171875 0.9140625
vt 0.171875 0.9140625
vt 0.171875 0.9453125
vt 0.1171875 0.984375
vt 0.1171875 0.9140625
vt 0.1171875 0.984375
vt 0.0625 0.984375
vt 0.0625 0.984375
vt 0.0078125 0.9453125
vt 0.0078125 0.8984375
vt 0.2265625 0.75
vt 0.2265625 0.625
vt 0.265625 0.75
vt 0.453125 0.75
vt 0.4921875 0.5625
vt 0.4921875 0.75
vt 0.4140625 0.75
vt 0.4921875 0.5625
vt 0.453125 0.75
vt 0.3359375 0.75
vt 0.265625 0.75
vt 0.265625 0.625
vt 0.3359375 0.75
vt 0.265625 0.625
vt 0.3359375 0.5625
vt 0.4140625 0.75
vt 0.3359375 0.75
vt 0.3359375 0.5625
vt 0.4140625 0.75
vt 0.3359375 0.5625
vt 0.4140625 0.5625
vt 0.265625 0.625
vt 0.265625 0.75
vt 0.2265625 0.625
vt 0.4140625 0.75
vt 0.4140625 0.5625
vt 0.4921875 0.5625
vt 0.796875 0.0703125
vt 0.671875 0.0078125
vt 0.671875 0.0703125
vt 0.21875 0.6875
vt 0.0078125 0.75
vt 0.0078125 0.625
vt 0.671875 0.0078125
vt 0.796875 0.0703125
vt 0.671875 0.0703125
vt 0.4140625 0.546875
vt 0.3359375 0.546875
vt 0.3359375 0.3203125
vt 0.4140625 0.3203125
vt 0.4921875 0.3203125
vt 0.4921875 0.546875
vt 0.4140625 0.3203125
vt 0.4921875 0.546875
vt 0.4140625 0.546875
vt 0.3359375 0.3203125
vt 0.4140625 0.3203125
vt 0.4140625 0.546875
vt 0.3359375 0.3203125
vt 0.2109375 0.4609375
vt 0.3359375 0.546875
vt 0.3359375 0.3203125
vt 0.2109375 0.3203125
vt 0.2109375 0.4609375
vt 0.2109375 0.4609375
vt 0.3359375 0.3203125
vt 0.3359375 0.546875
vt 0.2109375 0.3203125
vt 0.3359375 0.3203125
vt 0.2109375 0.4609375
vt 0.0078125 0.3203125
vt 0.1015625 0.25
vt 0.2109375 0.3203125
vt 0.21875 0.25
vt 0.328125 0.25
vt 0.2734375 0.3125
vt 0.1796875 0.0078125
vt 0.21875 0.0078125
vt 0.21875 0.109375
vt 0.796875 0.0078125
vt 0.671875 0.0078125
vt 0.796875 0.0703125
vt 0.1328125 0.0078125
vt 0.1796875 0.0078125
vt 0.21875 0.109375
vt 0.0078125 0.4609375
vt 0.109375 0.5390625
vt 0.0078125 0.6171875
vt 0.4140625 0.265625
vt 0.4921875 0.3203125
vt 0.4140625 0.3203125
vt 0.0078125 0.25
vt 0.1015625 0.25
vt 0.0078125 0.3203125
vt 0.2109375 0.4609375
vt 0.2109375 0.6171875
vt 0.3359375 0.546875
vt 0.21875 0.25
vt 0.2734375 0.3125
vt 0.21875 0.3125
vt 0.109375 0.5390625
vt 0.0078125 0.4609375
vt 0.2109375 0.4609375
vt 0.2109375 0.6171875
vt 0.0078125 0.6171875
vt 0.109375 0.5390625
vt 0.21875 0.109375
vt 0.21875 0.0078125
vt 0.2578125 0.0078125
vt 0.796875 0.0703125
vt 0.671875 0.0078125
vt 0.796875 0.0078125
vt 0.21875 0.109375
vt 0.2578125 0.0078125
vt 0.3046875 0.0078125
vt 0.2109375 0.6171875
vt 0.109375 0.5390625
vt 0.2109375 0.4609375
vt 0.4140625 0.3203125
vt 0.3359375 0.3203125
vt 0.4140625 0.265625
vt 0.2109375 0.3203125
vt 0.1015625 0.25
vt 0.2109375 0.25
vt 0.3359375 0.546875
vt 0.2109375 0.6171875
vt 0.2109375 0.4609375
vt 0.328125 0.3125
vt 0.2734375 0.3125
vt 0.328125 0.25
vt 0.2109375 0.4609375
vt 0.0078125 0.4609375
vt 0.2109375 0.3203125
vt 0.0078125 0.3203125
vt 0.8828125 0.2890625
vt 0.8828125 0.1953125
vt 0.984375 0.1953125
vt 0.984375 0.1953125
vt 0.984375 0.2890625
vt 0.8828125 0.2890625
vt 0.8203125 0.984375
vt 0.6640625 0.8671875
vt 0.6640625 0.984375
vt 0.8203125 0.5
vt 0.6640625 0.5
vt 0.6640625 0.8671875
vt 0.8203125 0.5
vt 0.6640625 0.8671875
vt 0.8203125 0.984375
vt 0.6640625 0.984375
vt 0.6640625 0.8671875
vt 0.8203125 0.984375
vt 0.8203125 0.5
vt 0.8203125 0.984375
vt 0.6640625 0.8671875
vt 0.8203125 0.5
vt 0.6640625 0.8671875
vt 0.6640625 0.5
vt 0.6640625 0.8671875
vt 0.6640625 0.984375
vt 0.5 0.984375
vt 0.6640625 0.8671875
vt 0.5 0.984375
vt 0.5 0.8671875
vt 0.8203125 0.296875
vt 0.6640625 0.296875
vt 0.6640625 0.5
vt 0.6640625 0.5
vt 0.8203125 0.5
vt 0.8203125 0.296875
vt 0.8203125 0.296875
vt 0.8203125 0.5
vt 0.6640625 0.5
vt 0.8203125 0.296875
vt 0.6640625 0.5
vt 0.6640625 0.296875
vt 0.484375 0.0078125
vt 0.6640625 0.078125
vt 0.609375 0.1875
vt 0.484375 0.0078125
vt 0.609375 0.1875
vt 0.484375 0.1875
vt 0.484375 0.0078125
vt 0.484375 0.1875
vt 0.609375 0.1875
vt 0.984375 0.0078125
vt 0.875 0.1875
vt 0.8046875 0.078125
vt 0.4296875 0.21875
vt 0.609375 0.1875
vt 0.484375 0.1875
vt 0.0703125 0.1953125
vt 0.0078125 0.2421875
vt 0.0078125 0.1171875
vt 0.0078125 0.2421875
vt 0.0703125 0.1953125
vt 0.1015625 0.2421875
vt 0.8046875 0.0078125
vt 0.984375 0.0078125
vt 0.8046875 0.078125
vt 0.1328125 0.0078125
vt 0.0078125 0.1171875
vt 0.0078125 0.0078125
vt 0.0703125 0.1953125
vt 0.0078125 0.1171875
vt 0.1328125 0.0078125
vt 0.4296875 0.21875
vt 0.34375 0.2421875
vt 0.609375 0.2890625
vt 0.4296875 0.21875
vt 0.609375 0.2890625
vt 0.609375 0.1875
vt 0.4296875 0.21875
vt 0.34375 0.2421875
vt 0.3671875 0.1953125
vt 0.4296875 0.1171875
vt 0.4296875 0.21875
vt 0.3671875 0.1953125
vt 0.4296875 0.21875
vt 0.484375 0.1875
vt 0.609375 0.1875
vt 0.6640625 0.0078125
vt 0.6640625 0.078125
vt 0.484375 0.0078125
vt 0.3046875 0.0078125
vt 0.484375 0.0078125
vt 0.4296875 0.1171875
vt 0.3671875 0.1953125
vt 0.3046875 0.0078125
vt 0.4296875 0.1171875
vt 0.4296875 0.21875
vt 0.609375 0.1875
vt 0.609375 0.2890625
vt 0.4296875 0.21875
vt 0.609375 0.2890625
vt 0.34375 0.2421875
vt 0.0703125 0.1953125
vt 0.21875 0.109375
vt 0.1015625 0.2421875
vt 0.21875 0.109375
vt 0.34375 0.2421875
vt 0.1015625 0.2421875
vt 0.21875 0.109375
vt 0.3046875 0.0078125
vt 0.3671875 0.1953125
vt 0.1328125 0.0078125
vt 0.21875 0.109375
vt 0.0703125 0.1953125
vt 0.21875 0.109375
vt 0.3671875 0.1953125
vt 0.34375 0.2421875
vt 0.6640625 0.078125
vt 0.8046875 0.078125
vt 0.875 0.1875
vt 0.875 0.1875
vt 0.609375 0.1875
vt 0.6640625 0.078125
vt 0.984375 0.984375
vt 0.8203125 0.984375
vt 0.984375 0.5
vt 0.8203125 0.5
vt 0.5 0.8671875
vt 0.5 0.5
vt 0.6640625 0.8671875
vt 0.6640625 0.5
vt 0.8203125 0.5
vt 0.8203125 0.296875
vt 0.984375 0.296875
vt 0.8203125 0.5
vt 0.984375 0.296875
vt 0.984375 0.5
vt 0.6640625 0.5
vt 0.5 0.5
vt 0.6640625 0.296875
vt 0.5 0.296875
vt 0.875 0.2890625
vt 0.609375 0.2890625
vt 0.875 0.1875
vt 0.609375 0.1875
vn 0.6558915561039391 0.07430806964905307 -0.7511887761518972
vn 0.6558915561039391 0.07430806964905307 -0.7511887761518972
vn 0.6558915561039391 0.07430806964905307 -0.7511887761518972
vn -0.2905236852570512 0.09121943491038198 -0.9525098440432479
vn -0.2905236852570512 0.09121943491038198 -0.9525098440432479
vn -0.2905236852570512 0.09121943491038198 -0.9525098440432479
vn -0.32240807856622977 0.08138669988512878 -0.9430955603527353
vn -0.32240807856622977 0.08138669988512878 -0.9430955603527353
vn -0.32240807856622977 0.08138669988512878 -0.9430955603527353
vn 0.8636120569760989 -0.21090510516803276 -0.45792275730692006
vn 0.8636120569760989 -0.21090510516803276 -0.45792275730692006
vn 0.8636120569760989 -0.21090510516803276 -0.45792275730692006
vn 0.9168682603117134 -0.2798110218789786 0.2847075433985088
vn 0.9168682603117134 -0.2798110218789786 0.2847075433985088
vn 0.9168682603117134 -0.2798110218789786 0.2847075433985088
vn 0.9179983224301701 0.12765753387763773 -0.37547654262240254
vn 0.9179983224301701 0.12765753387763773 -0.37547654262240254
vn 0.9179983224301701 0.12765753387763773 -0.37547654262240254
vn -0.12408203371256094 -0.05082617220913312 0.9909693986840978
vn -0.12408203371256094 -0.05082617220913312 0.9909693986840978
vn -0.12408203371256094 -0.05082617220913312 0.9909693986840978
vn -0.9870984977996554 0.06859835862554639 0.14467487976682278
vn -0.9870984977996554 0.06859835862554639 0.14467487976682278
vn -0.9870984977996554 0.06859835862554639 0.14467487976682278
vn -0.35126387368017753 -0.09904940227567884 -0.9310225061490334
vn -0.35126387368017753 -0.09904940227567884 -0.9310225061490334
vn -0.35126387368017753 -0.09904940227567884 -0.9310225061490334
vn -0.12512273880593655 -0.25213113012296023 -0.9595697960318573
vn -0.12512273880593655 -0.25213113012296023 -0.9595697960318573
vn -0.12512273880593655 -0.25213113012296023 -0.9595697960318573
vn 0.9184380941972673 -0.12194321533250918 0.37629950752248037
vn 0.9184380941972673 -0.12194321533250918 0.37629950752248037
vn 0.9184380941972673 -0.12194321533250918 0.37629950752248037
vn -0.2516726500675204 0.3169059388953251 0.9144569443669089
vn -0.2516726500675204 0.3169059388953251 0.9144569443669089
vn -0.2516726500675204 0.3169059388953251 0.9144569443669089
vn 0.012471968660834654 0.39972994862051103 0.9165480992144204
vn 0.012471968660834654 0.39972994862051103 0.9165480992144204
vn 0.012471968660834654 0.39972994862051103 0.9165480992144204
vn -0.9535774636411641 0.2546637965100408 0.16073696395906273
vn -0.9535774636411641 0.2546637965100408 0.16073696395906273
vn -0.9535774636411641 0.2546637965100408 0.16073696395906273
vn -0.9410444644623723 0.33827946116867613 -0.0015238294382419364
vn -0.9410444644623723 0.33827946116867613 -0.0015238294382419364
vn -0.9410444644623723 0.33827946116867613 -0.0015238294382419364
vn -0.10249487095999747 0.04106606457062167 -0.9938854963060759
vn -0.10249487095999747 0.04106606457062167 -0.9938854963060759
vn -0.10249487095999747 0.04106606457062167 -0.9938854963060759
vn 0.24558412775346694 -0.9010254051709347 -0.35754951465793056
vn 0.24558412775346694 -0.9010254051709347 -0.35754951465793056
vn 0.24558412775346694 -0.9010254051709347 -0.35754951465793056
vn 0.1736408926728616 -0.9003025928970699 -0.3991291540524003
vn 0.1736408926728616 -0.9003025928970699 -0.3991291540524003
vn 0.1736408926728616 -0.9003025928970699 -0.3991291540524003
vn 0.9752186012906113 0.04791106691646664 -0.21599354009717406
vn 0.9752186012906113 0.04791106691646664 -0.21599354009717406
vn 0.9752186012906113 0.04791106691646664 -0.21599354009717406
vn 0.9876108166476683 -0.060319405030280424 -0.14486698801769476
vn 0.9876108166476683 -0.060319405030280424 -0.14486698801769476
vn 0.9876108166476683 -0.060319405030280424 -0.14486698801769476
vn 0.1302339766950364 -0.4302278870416675 0.8932765957562411
vn 0.1302339766950364 -0.4302278870416675 0.8932765957562411
vn 0.1302339766950364 -0.4302278870416675 0.8932765957562411
vn 0.8711003484396764 0.4757256709365098 -0.12193961194083665
vn 0.8711003484396764 0.4757256709365098 -0.12193961194083665
vn 0.8711003484396764 0.4757256709365098 -0.12193961194083665
vn -0.10618874920726547 0.18223966220508592 -0.9775032762406337
vn -0.10618874920726547 0.18223966220508592 -0.9775032762406337
vn -0.10618874920726547 0.18223966220508592 -0.9775032762406337
vn -0.38621974140594556 0.2382416287327365 -0.8911089931580186
vn -0.38621974140594556 0.2382416287327365 -0.8911089931580186
vn -0.38621974140594556 0.2382416287327365 -0.8911089931580186
vn -0.8857410060669493 -0.13237929503495002 0.44490290223548573
vn -0.8857410060669493 -0.13237929503495002 0.44490290223548573
vn -0.8857410060669493 -0.13237929503495002 0.44490290223548573
vn -0.9584382981945547 -0.19237100008410737 0.2106879846611243
vn -0.9584382981945547 -0.19237100008410737 0.2106879846611243
vn -0.9584382981945547 -0.19237100008410737 0.2106879846611243
vn -0.38073611374807576 -0.16624547591506927 0.9096166519066066
vn -0.38073611374807576 -0.16624547591506927 0.9096166519066066
vn -0.38073611374807576 -0.16624547591506927 0.9096166519066066
vn 0.8520383248090293 -0.22059373581639896 0.4747305517608784
vn 0.8520383248090293 -0.22059373581639896 0.4747305517608784
vn 0.8520383248090293 -0.22059373581639896 0.4747305517608784
vn 0.5953208970865594 -0.1088242188772767 -0.7960843666834596
vn 0.5953208970865594 -0.1088242188772767 -0.7960843666834596
vn 0.5953208970865594 -0.1088242188772767 -0.7960843666834596
vn -0.18470197998460197 0.3344201162480898 -0.9241473716017277
vn -0.18470197998460197 0.3344201162480898 -0.9241473716017277
vn -0.18470197998460197 0.3344201162480898 -0.9241473716017277
vn -0.10836662986510362 -0.4164780335822924 0.9026642349595482
vn -0.10836662986510362 -0.4164780335822924 0.9026642349595482
vn -0.10836662986510362 -0.4164780335822924 0.9026642349595482
vn -0.10806878913348293 -0.4167187015051859 0.9025888657805693
vn -0.10806878913348293 -0.4167187015051859 0.9025888657805693
vn -0.10806878913348293 -0.4167187015051859 0.9025888657805693
vn -0.9731846107076138 0.17031264745014224 0.15461343926190296
vn -0.9731846107076138 0.17031264745014224 0.15461343926190296
vn -0.9731846107076138 0.17031264745014224 0.15461343926190296
vn -0.9635671962583413 0.26686269015394354 0.017960036153621427
vn -0.9635671962583413 0.26686269015394354 0.017960036153621427
vn -0.9635671962583413 0.26686269015394354 0.017960036153621427
vn 0.9252774274733887 -0.364209330236655 -0.10589261530812653
vn 0.9252774274733887 -0.364209330236655 -0.10589261530812653
vn 0.9252774274733887 -0.364209330236655 -0.10589261530812653
vn -0.1401621394027246 0.304359553663016 -0.9421888540903574
vn -0.1401621394027246 0.304359553663016 -0.9421888540903574
vn -0.1401621394027246 0.304359553663016 -0.9421888540903574
vn -0.42137411087860366 -0.45303138930448544 -0.7856248589410305
vn -0.42137411087860366 -0.45303138930448544 -0.7856248589410305
vn -0.42137411087860366 -0.45303138930448544 -0.7856248589410305
vn 0.4977469358422491 -0.1822001604602034 -0.8479688021312626
vn 0.4977469358422491 -0.1822001604602034 -0.8479688021312626
vn 0.4977469358422491 -0.1822001604602034 -0.8479688021312626
vn 0.6654227382535429 -0.1442902238597466 -0.7323884971199789
vn 0.6654227382535429 -0.1442902238597466 -0.7323884971199789
vn 0.6654227382535429 -0.1442902238597466 -0.7323884971199789
vn -0.47654139929565986 -0.4950776093301038 -0.7265028943488963
vn -0.47654139929565986 -0.4950776093301038 -0.7265028943488963
vn -0.47654139929565986 -0.4950776093301038 -0.7265028943488963
vn -0.10137649462760535 -0.6855950245444464 -0.7208899143814672
vn -0.10137649462760535 -0.6855950245444464 -0.7208899143814672
vn -0.10137649462760535 -0.6855950245444464 -0.7208899143814672
vn -0.9832576391719346 -0.12337395396279578 0.13410176170960394
vn -0.9832576391719346 -0.12337395396279578 0.13410176170960394
vn -0.9832576391719346 -0.12337395396279578 0.13410176170960394
vn -0.901625133392549 -0.1131733776058621 0.41744928486721494
vn -0.901625133392549 -0.1131733776058621 0.41744928486721494
vn -0.901625133392549 -0.1131733776058621 0.41744928486721494
vn -0.20549427220630592 0.33238757057406576 0.9204838982938656
vn -0.20549427220630592 0.33238757057406576 0.9204838982938656
vn -0.20549427220630592 0.33238757057406576 0.9204838982938656
vn 0.6929901764410872 0.14324380304664142 0.7065732999801833
vn 0.6929901764410872 0.14324380304664142 0.7065732999801833
vn 0.6929901764410872 0.14324380304664142 0.7065732999801833
vn 0.79249484202887 0.05822463023964228 0.6070929235224979
vn 0.79249484202887 0.05822463023964228 0.6070929235224979
vn 0.79249484202887 0.05822463023964228 0.6070929235224979
vn 0.9108880564070804 0.09568884019676907 0.40140577294893115
vn 0.9108880564070804 0.09568884019676907 0.40140577294893115
vn 0.9108880564070804 0.09568884019676907 0.40140577294893115
vn 0.7411893768138618 -0.3511201219985856 -0.5721476799096344
vn 0.7411893768138618 -0.3511201219985856 -0.5721476799096344
vn 0.7411893768138618 -0.3511201219985856 -0.5721476799096344
vn -0.9863031169179505 -0.07575158228475927 0.14651914325196905
vn -0.9863031169179505 -0.07575158228475927 0.14651914325196905
vn -0.9863031169179505 -0.07575158228475927 0.14651914325196905
vn -0.16178419125097185 0.6591476376865483 0.7344047025949055
vn -0.16178419125097185 0.6591476376865483 0.7344047025949055
vn -0.16178419125097185 0.6591476376865483 0.7344047025949055
vn -0.25698346344976586 0.6770014284167472 0.6896582961402312
vn -0.25698346344976586 0.6770014284167472 0.6896582961402312
vn -0.25698346344976586 0.6770014284167472 0.6896582961402312
vn 0.8350504315729811 0.5447822392589031 0.07683155938696799
vn 0.8350504315729811 0.5447822392589031 0.07683155938696799
vn 0.8350504315729811 0.5447822392589031 0.07683155938696799
vn 0.7888359897439967 0.5302346860075725 0.3107876429960821
vn 0.7888359897439967 0.5302346860075725 0.3107876429960821
vn 0.7888359897439967 0.5302346860075725 0.3107876429960821
vn -0.21861424951943184 -0.1549853825134285 -0.9634247978509906
vn -0.21861424951943184 -0.1549853825134285 -0.9634247978509906
vn -0.21861424951943184 -0.1549853825134285 -0.9634247978509906
vn 0.048498343796795955 -0.9928785587177832 -0.10881212380734698
vn 0.048498343796795955 -0.9928785587177832 -0.10881212380734698
vn 0.048498343796795955 -0.9928785587177832 -0.10881212380734698
vn 0.04849833640305802 -0.9928785598814908 -0.10881211648430006
vn 0.04849833640305802 -0.9928785598814908 -0.10881211648430006
vn 0.04849833640305802 -0.9928785598814908 -0.10881211648430006
vn -0.9929870415144394 0.010978031025353637 0.11771243867666396
vn -0.9929870415144394 0.010978031025353637 0.11771243867666396
vn -0.9929870415144394 0.010978031025353637 0.11771243867666396
vn -0.9845438554599761 -0.04205892215822695 0.17001306932966626
vn -0.9845438554599761 -0.04205892215822695 0.17001306932966626
vn -0.9845438554599761 -0.04205892215822695 0.17001306932966626
vn 0.24261926545764387 -0.23808502083970348 0.9404527712121173
vn 0.24261926545764387 -0.23808502083970348 0.9404527712121173
vn 0.24261926545764387 -0.23808502083970348 0.9404527712121173
vn -0.8878343134385392 0.4394033267579726 0.13665631458203412
vn -0.8878343134385392 0.4394033267579726 0.13665631458203412
vn -0.8878343134385392 0.4394033267579726 0.13665631458203412
vn -0.939392756081688 0.329308215514701 0.09538002419675538
vn -0.939392756081688 0.329308215514701 0.09538002419675538
vn -0.939392756081688 0.329308215514701 0.09538002419675538
vn -0.12432890960045799 0.032604731172486974 -0.9917052252270989
vn -0.12432890960045799 0.032604731172486974 -0.9917052252270989
vn -0.12432890960045799 0.032604731172486974 -0.9917052252270989
vn 0.08585569282141468 0.09857609145537846 -0.9914189599778369
vn 0.08585569282141468 0.09857609145537846 -0.9914189599778369
vn 0.08585569282141468 0.09857609145537846 -0.9914189599778369
vn 0.9730572417658626 -0.18781271030959812 -0.13373851387380753
vn 0.9730572417658626 -0.18781271030959812 -0.13373851387380753
vn 0.9730572417658626 -0.18781271030959812 -0.13373851387380753
vn 0.7650838693415682 0.15173703826982277 0.6257975264336195
vn 0.7650838693415682 0.15173703826982277 0.6257975264336195
vn 0.7650838693415682 0.15173703826982277 0.6257975264336195
vn -0.8737063808583866 -0.2917288178540107 0.3892704161387576
vn -0.8737063808583866 -0.2917288178540107 0.3892704161387576
vn -0.8737063808583866 -0.2917288178540107 0.3892704161387576
vn -0.5929711361998417 -0.16355049336891117 -0.7884392606616282
vn -0.5929711361998417 -0.16355049336891117 -0.7884392606616282
vn -0.5929711361998417 -0.16355049336891117 -0.7884392606616282
vn 0.20234141254169433 0.3668798895018537 -0.9079962001295707
vn 0.20234141254169433 0.3668798895018537 -0.9079962001295707
vn 0.20234141254169433 0.3668798895018537 -0.9079962001295707
vn 0.0858543663865793 -0.43652904015803895 0.895584404102182
vn 0.0858543663865793 -0.43652904015803895 0.895584404102182
vn 0.0858543663865793 -0.43652904015803895 0.895584404102182
vn 0.1168443502469432 -0.4074436781286459 0.9057245977494317
vn 0.1168443502469432 -0.4074436781286459 0.9057245977494317
vn 0.1168443502469432 -0.4074436781286459 0.9057245977494317
vn 0.9422673464366843 0.300697173861733 0.1473548691789177
vn 0.9422673464366843 0.300697173861733 0.1473548691789177
vn 0.9422673464366843 0.300697173861733 0.1473548691789177
vn 0.9440322542692172 0.25991240210798777 0.20309762709060866
vn 0.9440322542692172 0.25991240210798777 0.20309762709060866
vn 0.9440322542692172 0.25991240210798777 0.20309762709060866
vn -0.895526243819473 -0.4114053013282576 -0.1696420486482976
vn -0.895526243819473 -0.4114053013282576 -0.1696420486482976
vn -0.895526243819473 -0.4114053013282576 -0.1696420486482976
vn 0.16680147276573193 0.3382914768387652 -0.9261404566162899
vn 0.16680147276573193 0.3382914768387652 -0.9261404566162899
vn 0.16680147276573193 0.3382914768387652 -0.9261404566162899
vn -0.8260906869962079 0.5425643282308004 -0.15230931222218116
vn -0.8260906869962079 0.5425643282308004 -0.15230931222218116
vn -0.8260906869962079 0.5425643282308004 -0.15230931222218116
vn 0.10367781699344633 0.6592502017305428 -0.7447416208200748
vn 0.10367781699344633 0.6592502017305428 -0.7447416208200748
vn 0.10367781699344633 0.6592502017305428 -0.7447416208200748
vn 0.8788147412776216 0.449208519833197 0.16092344832999128
vn 0.8788147412776216 0.449208519833197 0.16092344832999128
vn 0.8788147412776216 0.449208519833197 0.16092344832999128
vn 0.8281691112786899 0.14565175839275465 -0.541222217209312
vn 0.8281691112786899 0.14565175839275465 -0.541222217209312
vn 0.8281691112786899 0.14565175839275465 -0.541222217209312
vn -0.7735235604894126 0.20883348351518657 -0.5983726911638716
vn -0.7735235604894126 0.20883348351518657 -0.5983726911638716
vn -0.7735235604894126 0.20883348351518657 -0.5983726911638716
vn -0.7823072268578187 0.21037623804544042 -0.5862910891970622
vn -0.7823072268578187 0.21037623804544042 -0.5862910891970622
vn -0.7823072268578187 0.21037623804544042 -0.5862910891970622
vn 0.5460250383094194 0.5581461196737274 -0.6247636086011719
vn 0.5460250383094194 0.5581461196737274 -0.6247636086011719
vn 0.5460250383094194 0.5581461196737274 -0.6247636086011719
vn -0.9769873076586587 -0.19135820970523884 0.09422227046877552
vn -0.9769873076586587 -0.19135820970523884 0.09422227046877552
vn -0.9769873076586587 -0.19135820970523884 0.09422227046877552
vn -0.9716248930925303 -0.14787672190101186 0.18460103532412722
vn -0.9716248930925303 -0.14787672190101186 0.18460103532412722
vn -0.9716248930925303 -0.14787672190101186 0.18460103532412722
vn 0.9767064696811751 -0.20456176018490763 0.06479937000456165
vn 0.9767064696811751 -0.20456176018490763 0.06479937000456165
vn 0.9767064696811751 -0.20456176018490763 0.06479937000456165
vn 0.9646071947141921 -0.12295691867191755 0.23326927799503325
vn 0.9646071947141921 -0.12295691867191755 0.23326927799503325
vn 0.9646071947141921 -0.12295691867191755 0.23326927799503325
vn -0.0007328420635831857 0.6991284966228736 0.7149956700234977
vn -0.0007328420635831857 0.6991284966228736 0.7149956700234977
vn -0.0007328420635831857 0.6991284966228736 0.7149956700234977
vn -0.026973761102535215 -0.888686163127553 -0.45772188026968064
vn -0.026973761102535215 -0.888686163127553 -0.45772188026968064
vn -0.026973761102535215 -0.888686163127553 -0.45772188026968064
vn -0.1729683693629401 -0.18333144131975682 0.9677145890310562
vn -0.1729683693629401 -0.18333144131975682 0.9677145890310562
vn -0.1729683693629401 -0.18333144131975682 0.9677145890310562
vn -0.7774128973300286 0.5296138565489739 -0.3393204238124389
vn -0.7774128973300286 0.5296138565489739 -0.3393204238124389
vn -0.7774128973300286 0.5296138565489739 -0.3393204238124389
vn -0.8437709384470067 -0.35806874171362424 0.3997966728724486
vn -0.8437709384470067 -0.35806874171362424 0.3997966728724486
vn -0.8437709384470067 -0.35806874171362424 0.3997966728724486
vn -0.36673844265517747 -0.6934326963688029 0.6202048131750888
vn -0.36673844265517747 -0.6934326963688029 0.6202048131750888
vn -0.36673844265517747 -0.6934326963688029 0.6202048131750888
vn -0.4816920409014135 0.8760454563293213 -0.022740628333058687
vn -0.4816920409014135 0.8760454563293213 -0.022740628333058687
vn -0.4816920409014135 0.8760454563293213 -0.022740628333058687
vn -0.543157279359745 0.7364617584350434 0.4032421707129399
vn -0.543157279359745 0.7364617584350434 0.4032421707129399
vn -0.543157279359745 0.7364617584350434 0.4032421707129399
vn -0.9346828970931366 -0.3421705631791269 0.09637005538682904
vn -0.9346828970931366 -0.3421705631791269 0.09637005538682904
vn -0.9346828970931366 -0.3421705631791269 0.09637005538682904
vn -0.5446385160556972 -0.5878557579417242 -0.5981592552852534
vn -0.5446385160556972 -0.5878557579417242 -0.5981592552852534
vn -0.5446385160556972 -0.5878557579417242 -0.5981592552852534
vn 0.0005451712597000146 -0.39198231381196946 0.9199725911389495
vn 0.0005451712597000146 -0.39198231381196946 0.9199725911389495
vn 0.0005451712597000146 -0.39198231381196946 0.9199725911389495
vn -0.075815067908404 -0.8121361266394267 0.5785213801452401
vn -0.075815067908404 -0.8121361266394267 0.5785213801452401
vn -0.075815067908404 -0.8121361266394267 0.5785213801452401
vn 0.2281489993352604 -0.22626252720856527 0.9469705924069199
vn 0.2281489993352604 -0.22626252720856527 0.9469705924069199
vn 0.2281489993352604 -0.22626252720856527 0.9469705924069199
vn 0.8437738853063137 0.392900966035317 -0.3656151820748183
vn 0.8437738853063137 0.392900966035317 -0.3656151820748183
vn 0.8437738853063137 0.392900966035317 -0.3656151820748183
vn 0.7538670926593901 -0.423038275683293 0.5027156491618145
vn 0.7538670926593901 -0.423038275683293 0.5027156491618145
vn 0.7538670926593901 -0.423038275683293 0.5027156491618145
vn 0.35082659390718246 -0.682964210908309 0.6406875897236307
vn 0.35082659390718246 -0.682964210908309 0.6406875897236307
vn 0.35082659390718246 -0.682964210908309 0.6406875897236307
vn 0.40814451302472704 0.8778647382098258 -0.25054252711985303
vn 0.40814451302472704 0.8778647382098258 -0.25054252711985303
vn 0.40814451302472704 0.8778647382098258 -0.25054252711985303
vn 0.5438503638806144 0.7317805311478459 0.4107603144656263
vn 0.5438503638806144 0.7317805311478459 0.4107603144656263
vn 0.5438503638806144 0.7317805311478459 0.4107603144656263
vn 0.9361986553352464 -0.34484315049082287 0.06793584700318604
vn 0.9361986553352464 -0.34484315049082287 0.06793584700318604
vn 0.9361986553352464 -0.34484315049082287 0.06793584700318604
vn 0.5760774621859284 -0.5837350497266955 -0.572178424341562
vn 0.5760774621859284 -0.5837350497266955 -0.572178424341562
vn 0.5760774621859284 -0.5837350497266955 -0.572178424341562
vn 0.0005195065896011346 -0.4651970099356771 0.8852070221478188
vn 0.018372125707937018 -0.4805218818992862 0.8767902748165836
vn 0.018372125707937018 -0.4805218818992862 0.8767902748165836
vn 0.035745003298366905 -0.4951561525586331 0.8680683609731039
vn -0.03687994861082351 -0.9953865826579551 0.08857437809536806
vn -0.03687994861082351 -0.9953865826579551 0.08857437809536806
vn -0.03687994861082351 -0.9953865826579551 0.08857437809536806
vn -0.004656644483691142 -0.9980099680758047 0.0628841735533159
vn -0.004656644483691142 -0.9980099680758047 0.0628841735533159
vn -0.004656644483691142 -0.9980099680758047 0.0628841735533159
vn -0.9689230548139086 -0.2458827701761069 -0.02701438839964603
vn -0.9689230548139086 -0.2458827701761069 -0.02701438839964603
vn -0.9689230548139086 -0.2458827701761069 -0.02701438839964603
vn -0.9889136292888144 -0.03251659039624199 0.1448879054849928
vn -0.9889136292888144 -0.03251659039624199 0.1448879054849928
vn -0.9889136292888144 -0.03251659039624199 0.1448879054849928
vn -0.9595503796205546 -0.13045567259325755 -0.24948824913869336
vn -0.9595503796205546 -0.13045567259325755 -0.24948824913869336
vn -0.9595503796205546 -0.13045567259325755 -0.24948824913869336
vn 0.9041182014351046 -0.2580848694645647 0.34053263865187733
vn 0.9041182014351046 -0.2580848694645647 0.34053263865187733
vn 0.9041182014351046 -0.2580848694645647 0.34053263865187733
vn 0.9979675457433622 -0.03921784105799966 -0.050226871152001945
vn 0.9979675457433622 -0.03921784105799966 -0.050226871152001945
vn 0.9979675457433622 -0.03921784105799966 -0.050226871152001945
vn 0.9708139312233175 0.05292218557519575 0.23392210929425333
vn 0.9708139312233175 0.05292218557519575 0.23392210929425333
vn 0.9708139312233175 0.05292218557519575 0.23392210929425333
vn -0.21307603049665297 -0.21283840167324064 0.9535714026757356
vn -0.21307603049665297 -0.21283840167324064 0.9535714026757356
vn -0.21307603049665297 -0.21283840167324064 0.9535714026757356
vn -0.21307603049665297 -0.21283840167324064 0.9535714026757356
vn -0.21307603049665297 -0.21283840167324064 0.9535714026757356
vn -0.21307603049665297 -0.21283840167324064 0.9535714026757356
vn -0.9911713844254726 -0.06540341091292616 -0.11533291176870092
vn -0.9911713844254726 -0.06540341091292616 -0.11533291176870092
vn -0.9911713844254726 -0.06540341091292616 -0.11533291176870092
vn -0.9873904383390331 0.10779750126116605 0.11593024194963468
vn -0.9873904383390331 0.10779750126116605 0.11593024194963468
vn -0.9873904383390331 0.10779750126116605 0.11593024194963468
vn 0.970766827213577 0.056445098532402226 0.23329320185841854
vn 0.970766827213577 0.056445098532402226 0.23329320185841854
vn 0.970766827213577 0.056445098532402226 0.23329320185841854
vn 0.98401773224967 0.01753709842232776 0.17720483288314254
vn 0.98401773224967 0.01753709842232776 0.17720483288314254
vn 0.98401773224967 0.01753709842232776 0.17720483288314254
vn 0.5731869865170961 0.3631303563552015 -0.7345699577172989
vn 0.5731869865170961 0.3631303563552015 -0.7345699577172989
vn 0.5731869865170961 0.3631303563552015 -0.7345699577172989
vn 0.9308862955887899 -0.325174102668602 -0.16647074108878607
vn 0.9308862955887899 -0.325174102668602 -0.16647074108878607
vn 0.9308862955887899 -0.325174102668602 -0.16647074108878607
vn -0.8897052294952599 -0.4079151400094431 -0.2050118122447168
vn -0.8897052294952599 -0.4079151400094431 -0.2050118122447168
vn -0.8897052294952599 -0.4079151400094431 -0.2050118122447168
vn -0.554245303352023 0.3589745230056277 -0.7509656686860634
vn -0.554245303352023 0.3589745230056277 -0.7509656686860634
vn -0.554245303352023 0.3589745230056277 -0.7509656686860634
vn 0.9931648516556532 0.11502532081466557 -0.019817997055396913
vn 0.9931648516556532 0.11502532081466557 -0.019817997055396913
vn 0.9931648516556532 0.11502532081466557 -0.019817997055396913
vn -0.43893253610116606 -0.5508704161246756 0.7098450629471373
vn -0.43893253610116606 -0.5508704161246756 0.7098450629471373
vn -0.43893253610116606 -0.5508704161246756 0.7098450629471373
vn -0.7552821631402571 -0.39843803618872414 0.5203806158575154
vn -0.7552821631402571 -0.39843803618872414 0.5203806158575154
vn -0.7552821631402571 -0.39843803618872414 0.5203806158575154
vn -0.32449671445220585 0.9252183981823341 -0.19665400574267375
vn -0.32449671445220585 0.9252183981823341 -0.19665400574267375
vn -0.32449671445220585 0.9252183981823341 -0.19665400574267375
vn -0.41875359879688556 0.8232661576831216 0.38324699230173553
vn -0.41875359879688556 0.8232661576831216 0.38324699230173553
vn -0.41875359879688556 0.8232661576831216 0.38324699230173553
vn 0.24808055789143085 0.35280183848914554 0.9022122253411086
vn 0.24808055789143085 0.35280183848914554 0.9022122253411086
vn 0.24808055789143085 0.35280183848914554 0.9022122253411086
vn -0.24825410076636723 -0.9262410227598348 0.2836326307206165
vn -0.24825410076636723 -0.9262410227598348 0.2836326307206165
vn -0.24825410076636723 -0.9262410227598348 0.2836326307206165
vn -0.9172721999446918 -0.3908110217605821 -0.07667109285170665
vn -0.9172721999446918 -0.3908110217605821 -0.07667109285170665
vn -0.9172721999446918 -0.3908110217605821 -0.07667109285170665
vn 0.6393643038278068 -0.4175285409862246 0.6456649320295307
vn 0.6393643038278068 -0.4175285409862246 0.6456649320295307
vn 0.6393643038278068 -0.4175285409862246 0.6456649320295307
vn 0.48494308785803 -0.5065573412002079 0.7129024208227205
vn 0.48494308785803 -0.5065573412002079 0.7129024208227205
vn 0.48494308785803 -0.5065573412002079 0.7129024208227205
vn -0.8534247447842745 -0.48807735215685316 -0.1828843987371561
vn -0.8534247447842745 -0.48807735215685316 -0.1828843987371561
vn -0.8534247447842745 -0.48807735215685316 -0.1828843987371561
vn 0.25779017557356215 0.9593542125656895 -0.11482038238142969
vn 0.25779017557356215 0.9593542125656895 -0.11482038238142969
vn 0.25779017557356215 0.9593542125656895 -0.11482038238142969
vn 0.35952624112687953 0.8567268713563351 0.3698106945954411
vn 0.35952624112687953 0.8567268713563351 0.3698106945954411
vn 0.35952624112687953 0.8567268713563351 0.3698106945954411
vn -0.2181530285681756 0.33175945112861754 0.9177935076657338
vn -0.2181530285681756 0.33175945112861754 0.9177935076657338
vn -0.2181530285681756 0.33175945112861754 0.9177935076657338
vn 0.9885767330081849 -0.1499834542270931 0.01486628443737875
vn 0.9885767330081849 -0.1499834542270931 0.01486628443737875
vn 0.9885767330081849 -0.1499834542270931 0.01486628443737875
vn 0.39295002450686545 -0.8441640059694018 0.364660676884341
vn 0.39295002450686545 -0.8441640059694018 0.364660676884341
vn 0.39295002450686545 -0.8441640059694018 0.364660676884341
vn 0.2166376552627252 -0.17558228902310033 0.9603327475951642
vn 0.2166376552627252 -0.17558228902310033 0.9603327475951642
vn 0.2166376552627252 -0.17558228902310033 0.9603327475951642
vn -0.1490788153852022 0.12180172587439736 0.9812949843840857
vn -0.1490788153852022 0.12180172587439736 0.9812949843840857
vn -0.1490788153852022 0.12180172587439736 0.9812949843840857
vn 0.04310261096442335 0.45084533208460453 0.8915607951595743
vn 0.04310261096442335 0.45084533208460453 0.8915607951595743
vn 0.04310261096442335 0.45084533208460453 0.8915607951595743
vn -0.22723884167276676 0.5043876608839356 0.8330399728603972
vn -0.22723884167276676 0.5043876608839356 0.8330399728603972
vn -0.22723884167276676 0.5043876608839356 0.8330399728603972
vn -0.10516022651767463 0.1565583014663886 0.9820543900419726
vn -0.10516022651767463 0.1565583014663886 0.9820543900419726
vn -0.10516022651767463 0.1565583014663886 0.9820543900419726
vn 0.14911252146088125 -0.049283295492648475 -0.9875913186784109
vn 0.14911252146088125 -0.049283295492648475 -0.9875913186784109
vn 0.14911252146088125 -0.049283295492648475 -0.9875913186784109
vn 0.03166900902709484 0.16196514436036089 -0.986288175879428
vn 0.03166900902709484 0.16196514436036089 -0.986288175879428
vn 0.03166900902709484 0.16196514436036089 -0.986288175879428
vn 0.2453675555889847 0.035849418312673215 -0.9687670421060626
vn 0.08715390929404333 -0.010955811189508636 -0.9961346125378566
vn 0.08715390929404333 -0.010955811189508636 -0.9961346125378566
vn 0.011782793923529893 -0.032897843972617025 -0.9993892623143942
vn -0.2150650349002712 -0.09094826244400885 0.9723556161825574
vn -0.11771317810816741 -0.05311458665873146 0.9916261636240478
vn -0.11771317810816741 -0.05311458665873146 0.9916261636240478
vn -0.008404677707945916 -0.010537278806067647 0.9999091594479915
vn 0.1480317258949135 0.042347546499618686 -0.9880755504687058
vn 0.1480317258949135 0.042347546499618686 -0.9880755504687058
vn 0.1480317258949135 0.042347546499618686 -0.9880755504687058
vn 0.014213742417066962 -0.06429484363890392 -0.9978297162381715
vn 0.014213742417066962 -0.06429484363890392 -0.9978297162381715
vn 0.014213742417066962 -0.06429484363890392 -0.9978297162381715
vn 0.006254252924321919 -0.19645120035926722 0.9804936563781338
vn -0.07320789269936313 -0.15949858773405737 0.9844799667628387
vn -0.07320789269936313 -0.15949858773405737 0.9844799667628387
vn -0.14600202183797165 -0.12432651747608271 0.9814409440569992
vn 0.12827533678672717 0.4379430777901237 -0.8898040787656378
vn 0.07513380862262879 0.336703690888433 -0.9386082970781605
vn 0.07513380862262879 0.336703690888433 -0.9386082970781605
vn 0.03125158635434988 0.25091331699950725 -0.967504959006744
f 3/3/3 2/2/2 1/1/1
f 6/6/6 5/5/5 4/4/4
f 9/9/9 8/8/8 7/7/7
f 12/12/12 11/11/11 10/10/10
f 15/15/15 14/14/14 13/13/13
f 18/18/18 17/17/17 16/16/16
f 21/21/21 20/20/20 19/19/19
f 24/24/24 23/23/23 22/22/22
f 27/27/27 26/26/26 25/25/25
f 30/30/30 29/29/29 28/28/28
f 33/33/33 32/32/32 31/31/31
f 36/36/36 35/35/35 34/34/34
f 39/39/39 38/38/38 37/37/37
f 42/42/42 41/41/41 40/40/40
f 45/45/45 44/44/44 43/43/43
f 48/48/48 47/47/47 46/46/46
f 51/51/51 50/50/50 49/49/49
f 54/54/54 53/53/53 52/52/52
f 57/57/57 56/56/56 55/55/55
f 60/60/60 59/59/59 58/58/58
f 63/63/63 62/62/62 61/61/61
f 66/66/66 65/65/65 64/64/64
f 69/69/69 68/68/68 67/67/67
f 72/72/72 71/71/71 70/70/70
f 75/75/75 74/74/74 73/73/73
f 78/78/78 77/77/77 76/76/76
f 81/81/81 80/80/80 79/79/79
f 84/84/84 83/83/83 82/82/82
f 87/87/87 86/86/86 85/85/85
f 90/90/90 89/89/89 88/88/88
f 93/93/93 92/92/92 91/91/91
f 96/96/96 95/95/95 94/94/94
f 99/99/99 98/98/98 97/97/97
f 102/102/102 101/101/101 100/100/100
f 105/105/105 104/104/104 103/103/103
f 108/108/108 107/107/107 106/106/106
f 111/111/111 110/110/110 109/109/109
f 114/114/114 113/113/113 112/112/112
f 117/117/117 116/116/116 115/115/115
f 120/120/120 119/119/119 118/118/118
f 123/123/123 122/122/122 121/121/121
f 126/126/126 125/125/125 124/124/124
f 129/129/129 128/128/128 127/127/127
f 132/132/132 131/131/131 130/130/130
f 135/135/135 134/134/134 133/133/133
f 138/138/138 137/137/137 136/136/136
f 141/141/141 140/140/140 139/139/139
f 144/144/144 143/143/143 142/142/142
f 147/147/147 146/146/146 145/145/145
f 150/150/150 149/149/149 148/148/148
f 153/153/153 152/152/152 151/151/151
f 156/156/156 155/155/155 154/154/154
f 159/159/159 158/158/158 157/157/157
f 162/162/162 161/161/161 160/160/160
f 165/165/165 164/164/164 163/163/163
f 168/168/168 167/167/167 166/166/166
f 171/171/171 170/170/170 169/169/169
f 174/174/174 173/173/173 172/172/172
f 177/177/177 176/176/176 175/175/175
f 180/180/180 179/179/179 178/178/178
f 183/183/183 182/182/182 181/181/181
f 186/186/186 185/185/185 184/184/184
f 189/189/189 188/188/188 187/187/187
f 192/192/192 191/191/191 190/190/190
f 195/195/195 194/194/194 193/193/193
f 198/198/198 197/197/197 196/196/196
f 201/201/201 200/200/200 199/199/199
f 204/204/204 203/203/203 202/202/202
f 207/207/207 206/206/206 205/205/205
f 210/210/210 209/209/209 208/208/208
f 213/213/213 212/212/212 211/211/211
f 216/216/216 215/215/215 214/214/214
f 219/219/219 218/218/218 217/217/217
f 222/222/222 221/221/221 220/220/220
f 225/225/225 224/224/224 223/223/223
f 228/228/228 227/227/227 226/226/226
f 231/231/231 230/230/230 229/229/229
f 234/234/234 233/233/233 232/232/232
f 237/237/237 236/236/236 235/235/235
f 240/240/240 239/239/239 238/238/238
f 243/243/243 242/242/242 241/241/241
f 246/246/246 245/245/245 244/244/244
f 249/249/249 248/248/248 247/247/247
f 252/252/252 251/251/251 250/250/250
f 255/255/255 254/254/254 253/253/253
f 258/258/258 257/257/257 256/256/256
f 261/261/261 260/260/260 259/259/259
f 264/264/264 263/263/263 262/262/262
f 267/267/267 266/266/266 265/265/265
f 270/270/270 269/269/269 268/268/268
f 273/273/273 272/272/272 271/271/271
f 276/276/276 275/275/275 274/274/274
f 279/279/279 278/278/278 277/277/277
f 282/282/282 281/281/281 280/280/280
f 285/285/285 284/284/284 283/283/283
f 288/288/288 287/287/287 286/286/286
f 291/291/291 290/290/290 289/289/289
f 294/294/294 293/293/293 292/292/292
f 297/297/297 296/296/296 295/295/295
f 300/300/300 299/299/299 298/298/298
f 303/303/303 302/302/302 301/301/301
f 306/306/306 305/305/305 304/304/304
f 309/309/309 308/308/308 307/307/307
f 312/312/312 311/311/311 310/310/310
f 315/315/315 314/314/314 313/313/313
f 318/318/318 317/317/317 316/316/316
f 317/317/317 318/318/318 319/319/319
f 322/322/322 321/321/321 320/320/320
f 325/325/325 324/324/324 323/323/323
f 328/328/328 327/327/327 326/326/326
f 331/331/331 330/330/330 329/329/329
f 334/334/334 333/333/333 332/332/332
f 337/337/337 336/336/336 335/335/335
f 340/340/340 339/339/339 338/338/338
f 343/343/343 342/342/342 341/341/341
f 346/346/346 345/345/345 344/344/344
f 349/349/349 348/348/348 347/347/347
f 352/352/352 351/351/351 350/350/350
f 355/355/355 354/354/354 353/353/353
f 358/358/358 357/357/357 356/356/356
f 361/361/361 360/360/360 359/359/359
f 364/364/364 363/363/363 362/362/362
f 367/367/367 366/366/366 365/365/365
f 370/370/370 369/369/369 368/368/368
f 373/373/373 372/372/372 371/371/371
f 376/376/376 375/375/375 374/374/374
f 379/379/379 378/378/378 377/377/377
f 382/382/382 381/381/381 380/380/380
f 385/385/385 384/384/384 383/383/383
f 388/388/388 387/387/387 386/386/386
f 391/391/391 390/390/390 389/389/389
f 394/394/394 393/393/393 392/392/392
f 397/397/397 396/396/396 395/395/395
f 400/400/400 399/399/399 398/398/398
f 403/403/403 402/402/402 401/401/401
f 406/406/406 405/405/405 404/404/404
f 409/409/409 408/408/408 407/407/407
f 412/412/412 411/411/411 410/410/410
f 415/415/415 414/414/414 413/413/413
f 418/418/418 417/417/417 416/416/416
f 421/421/421 420/420/420 419/419/419
f 424/424/424 423/423/423 422/422/422
f 427/427/427 426/426/426 425/425/425
f 430/430/430 429/429/429 428/428/428
f 433/433/433 432/432/432 431/431/431
f 436/436/436 435/435/435 434/434/434
f 439/439/439 438/438/438 437/437/437
f 442/442/442 441/441/441 440/440/440
f 445/445/445 444/444/444 443/443/443
f 444/444/444 445/445/445 446/446/446
f 449/449/449 448/448/448 447/447/447
f 448/448/448 449/449/449 450/450/450
f 453/453/453 452/452/452 451/451/451
f 456/456/456 455/455/455 454/454/454
f 459/459/459 458/458/458 457/457/457
f 458/458/458 459/459/459 460/460/460
f 463/463/463 462/462/462 461/461/461
f 462/462/462 463/463/463 464/464/464
